<svg width="241" height="186" viewBox="0 0 241 186" fill="none" xmlns="http://www.w3.org/2000/svg">
<g opacity="0.15">
<path d="M206.003 185.082C203.551 185.082 201.158 184.082 198.882 183.082C196.489 182.083 194.037 181.083 191.586 181.083C189.309 181.083 187.208 182.083 185.165 182.906C182.889 183.906 180.496 184.906 178.044 184.788C174.892 184.67 171.799 182.671 170.34 179.907C168.764 176.907 169.172 173.438 169.464 170.027C169.756 166.91 170.048 163.734 168.88 160.911C168.589 160.206 168.063 159.441 167.713 158.735C166.838 157.265 165.904 155.736 165.904 154.03C165.904 153.325 166.02 152.619 166.079 152.031C166.254 150.737 166.487 149.443 165.787 148.62C164.795 147.503 163.044 148.032 161.234 148.62C157.148 149.914 152.829 150.031 148.101 148.914C147.926 148.914 147.809 148.738 147.809 148.502C147.809 148.267 147.985 148.208 148.218 148.208C150.786 148.62 153.238 147.797 155.864 146.914C158.024 146.209 160.242 145.444 162.518 145.444H162.635C166.371 145.444 169.756 147.561 172.908 149.561L173.783 150.031C179.212 153.442 185.165 156.206 190.885 158.912C191.294 156.912 191.586 154.795 191.994 152.737C192.403 150.561 192.811 148.267 193.162 146.15C190.068 144.856 186.858 143.856 183.648 142.857C177.227 140.975 170.69 138.975 165.962 134.27C162.518 130.801 157.966 128.507 153.121 127.684H153.004C152.187 127.566 151.428 127.39 150.728 126.86C150.319 126.566 150.027 125.861 150.144 125.272C150.144 124.743 150.319 124.273 150.611 123.979C150.903 123.155 150.494 122.156 150.144 121.567C150.027 121.391 149.852 121.097 149.736 120.862C149.327 120.274 148.918 119.568 148.743 118.862C148.627 118.392 148.568 117.98 148.568 117.451C148.452 116.98 148.452 116.451 148.276 115.981C148.101 115.451 147.693 114.981 147.401 114.569C146.992 114.099 146.525 113.452 146.292 112.746C146.292 112.628 146.292 112.57 146.175 112.57L146.584 123.038C147.051 122.92 147.576 122.92 147.985 123.214C148.568 123.508 149.094 124.037 149.152 124.684C149.152 124.802 149.152 124.978 149.035 125.096C148.918 125.214 148.743 125.214 148.627 125.096C148.335 124.92 148.043 124.684 147.751 124.626C147.576 124.626 147.167 124.626 147.051 124.802C146.934 124.978 146.934 125.214 146.934 125.39C146.934 126.508 146.934 127.566 147.518 128.272C148.218 129.095 149.677 130.389 151.37 130.742C151.545 130.742 151.662 130.918 151.662 131.153C151.662 131.33 151.545 131.448 151.37 131.565C149.561 131.977 147.693 132.271 145.825 132.388C144.833 132.506 143.84 132.506 142.848 132.506C141.739 132.506 140.689 132.506 139.58 132.624C137.128 132.8 135.202 133.212 133.626 134.035C133.042 134.329 132.225 134.858 132.225 135.505C132.225 136.093 132.692 136.623 133.217 136.799C133.801 136.976 134.502 136.976 135.202 136.976C136.077 136.858 137.07 136.858 137.945 136.799C140.689 136.623 143.665 136.329 146.467 136.917C146.642 136.917 146.759 137.093 146.759 137.328C146.759 137.505 146.584 137.623 146.35 137.623L132.984 137.799C132.284 137.799 131.583 137.799 130.999 138.093C130.532 138.269 130.007 138.916 130.182 139.504C130.299 139.975 130.883 140.387 131.35 140.504C131.817 140.622 132.459 140.504 132.926 140.387L133.334 140.269C135.727 139.857 138.004 140.151 140.338 140.445C142.323 140.445 144.191 140.622 146.175 140.857C146.35 140.857 146.467 141.034 146.467 141.269C146.467 141.445 146.292 141.563 146.058 141.68C144.191 141.798 142.323 141.504 140.513 141.269C140.397 141.269 140.338 141.269 140.222 141.269C138.12 141.269 136.194 141.269 134.21 141.386C133.626 141.386 132.809 141.386 132.342 141.798C132.05 141.974 131.875 142.21 131.933 142.504C131.933 142.68 132.225 142.915 132.4 142.974C133.276 143.562 134.268 144.15 135.26 144.386C136.369 144.68 137.537 144.562 138.704 144.503C138.996 144.503 139.288 144.386 139.58 144.386C141.973 144.209 144.307 144.503 146.7 145.091C146.876 145.091 146.992 145.268 146.992 145.503C146.992 145.679 146.817 145.797 146.584 145.797L138.179 146.091C137.595 146.091 137.186 146.209 137.07 146.503C136.953 146.679 137.07 146.973 137.245 147.091C137.42 147.267 137.712 147.385 138.12 147.503C140.805 148.385 143.782 148.914 146.35 148.914C146.525 148.914 146.759 149.09 146.759 149.326L146.876 152.737C146.876 152.913 146.759 153.148 146.584 153.148L129.54 154.971C129.423 154.971 129.365 154.971 129.248 154.854C126.855 152.384 125.279 149.149 124.696 145.738C124.579 144.915 124.521 144.15 124.404 143.445C124.229 141.857 123.995 140.328 123.412 138.975C121.602 134.682 116.582 132.8 112.438 133.212C108.703 133.623 104.734 135.505 100.473 138.975C95.3364 143.268 92.0677 147.679 90.6085 152.384C90.4918 152.56 90.4334 152.678 90.2 152.678C89.9665 152.678 89.9081 152.501 89.9081 152.384L87.1648 102.866L81.9117 93.7505C81.7949 93.574 81.7949 93.3388 82.0284 93.28C82.2035 93.1624 82.437 93.1624 82.4953 93.28L90.0832 101.866L143.315 100.337L129.482 92.9859L81.7949 93.574L83.079 143.798C83.079 143.974 82.9623 144.209 82.7872 144.209C82.6121 144.209 82.3786 144.092 82.3786 143.915L80.6859 132.506C78.7014 132.683 76.7169 132.683 74.7324 132.683C75.8413 136.27 76.0165 140.269 75.316 143.974C78.0593 143.562 80.861 144.15 82.9623 144.68C83.079 144.68 83.1374 144.797 83.1374 144.856L87.3983 152.854C87.515 152.972 87.515 153.148 87.3983 153.266C87.2815 153.384 87.2232 153.442 87.1064 153.442C84.2464 153.148 81.2696 153.56 78.2928 154.619C79.6937 154.501 81.0361 154.619 82.437 154.619C83.4292 154.619 84.4215 154.736 85.4138 154.619C89.3828 154.501 92.2429 153.619 93.9939 151.737C94.5776 151.031 95.1613 150.325 95.6866 149.561C96.387 148.561 97.0874 147.561 98.0797 146.738C99.9475 145.268 102.457 144.915 104.734 144.621C106.543 144.444 108.411 144.209 110.104 143.445C111.213 142.974 112.088 142.151 112.964 141.328C113.431 140.916 114.073 140.445 114.54 140.034C115.707 139.152 117.983 137.858 120.26 138.74C120.376 138.858 120.435 138.916 120.435 139.034C120.551 142.915 117.75 146.62 114.131 147.738L113.839 147.855C112.672 148.149 111.388 148.561 111.154 149.561C111.037 150.561 112.322 151.384 113.139 151.737C117.108 153.619 121.544 154.736 126.68 155.148C126.797 155.148 126.972 155.265 126.972 155.324C127.089 155.442 126.972 155.618 126.972 155.736C126.563 156.206 126.388 156.853 126.155 157.559C125.98 158.265 125.688 158.971 125.279 159.441C124.404 160.617 122.828 161.264 121.018 161.146C119.618 161.029 118.158 160.676 116.991 160.147C115.006 163.734 111.621 166.616 107.71 168.027C105.026 168.909 102.049 168.615 99.3054 168.321C97.9046 168.145 96.5621 168.027 95.278 168.027C90.0248 167.91 85.0635 170.497 80.3357 172.908C78.7598 173.732 77.1838 174.496 75.6079 175.202C61.7746 181.495 45.1396 180.789 31.0729 173.202C30.9561 173.202 30.9561 173.085 30.8978 173.026L19.2241 139.916C16.831 133.153 14.6714 125.919 16.6559 118.862C16.6559 118.686 16.831 118.568 17.0645 118.568C17.2979 118.568 17.3563 118.686 17.473 118.862C17.94 120.568 17.94 122.273 17.94 123.979C17.94 124.802 17.94 125.684 17.94 126.449C18.0567 128.625 19.049 131.448 21.3837 132.153C22.9597 132.565 24.5356 131.859 26.1116 131.153L26.5201 130.977C32.8239 128.272 40.0616 127.566 46.7739 128.86C47.9413 129.036 49.167 129.272 49.8675 128.566C50.3344 128.037 50.4511 127.39 50.4511 126.566C50.8597 123.097 51.2683 119.392 51.6185 115.981C52.0271 112.511 52.494 108.865 52.7859 105.395C52.7859 105.218 52.961 105.101 53.0777 105.101C53.2528 105.101 53.3695 105.218 53.4863 105.395C54.7704 110.276 54.1867 115.275 53.603 120.274C53.3112 123.273 52.9026 126.449 53.0193 129.448C53.1361 132.271 53.603 135.153 54.1283 137.917C54.8288 141.916 55.5876 146.032 55.0039 150.09C60.8407 150.561 66.5608 151.678 72.1058 153.501C72.1058 153.384 72.1058 153.325 71.989 153.325C71.8723 153.207 71.8139 153.148 71.8139 153.031L70.238 126.86C69.8294 120.274 69.4208 113.452 67.3779 107.1C65.2183 100.22 60.8407 93.5152 54.5953 87.1049C48.9336 81.3416 42.4547 76.5192 36.2093 71.8144C31.4814 68.227 26.5201 64.522 20.5082 63.8163C20.3331 63.8163 20.2163 63.6399 20.2163 63.4046C20.2163 63.2282 20.3915 62.9929 20.6249 62.9929C29.6136 62.8753 38.7191 66.8744 44.089 73.4023C44.4976 68.5211 48.1164 64.1103 52.9026 62.8165C53.603 62.6401 54.3034 62.5225 55.0039 62.4049C55.821 62.2872 56.6965 62.1108 57.4553 61.9344C58.2725 61.6403 60.1403 60.9346 60.6072 59.1115C61.0158 57.7001 60.4321 56.2886 59.7901 54.936C59.615 54.5243 59.4982 54.1127 59.3231 53.7598C58.506 51.6427 58.4476 48.4669 60.4321 46.585C61.0158 46.1145 61.7162 45.7029 62.4166 45.2912C63.2922 44.8207 64.1093 44.4091 64.5763 43.5857C65.2767 42.586 65.2767 41.1745 64.693 39.7043C64.4012 38.8809 63.9926 38.234 63.5256 37.4107C63.2338 36.9402 62.9419 36.4109 62.6501 35.8228C60.9574 32.4119 60.8407 28.5304 60.9574 24.943C57.9806 24.943 55.0039 24.8254 52.1438 24.4725C51.9687 24.4725 51.852 24.2961 51.852 24.1785C51.852 24.0021 51.9687 23.8845 52.1438 23.7668C53.9532 23.2964 55.7043 22.0613 56.8717 20.5911C49.167 25.884 39.9448 29.7654 29.4385 32.1766C26.4618 32.8823 23.4266 33.6469 20.6249 35.0583C20.6249 35.2347 20.4498 35.3524 20.2163 35.3524C20.0996 35.3524 20.0412 35.3524 19.9245 35.3524C19.7494 35.3524 19.6327 35.2347 19.5159 35.0583C19.5159 34.9407 19.5159 34.9407 19.5159 34.8819C18.1151 33.5881 17.7065 31.5885 18.6404 29.883C19.8078 27.7071 22.2009 26.7661 23.485 26.4721C24.9442 26.0604 26.4618 26.0016 27.921 25.884C28.3879 25.884 28.7965 25.7664 29.3218 25.7664C35.3337 25.2959 41.1706 23.3552 46.3653 20.1794C46.8323 19.8854 47.2409 19.5913 47.7662 19.2973C49.4589 18.1799 51.2099 17.0037 53.3112 16.4156C55.7626 15.7099 59.148 16.1216 60.724 18.5328C61.833 20.2382 61.833 22.3554 61.833 24.0021C61.833 24.1197 61.833 24.1785 61.833 24.2961C63.2922 24.2961 64.8097 24.1785 66.3857 24.1197C68.9539 23.9433 71.6388 23.5316 73.6817 22.1202C75.6662 20.8263 77.3589 18.2387 76.9503 15.8275L60.3737 15.0042C60.257 15.0042 60.1986 15.0042 60.0819 14.8866C55.2373 10.0053 49.2838 3.88913 41.8126 2.12484C37.2599 0.948643 32.1235 1.53674 27.3957 3.7127C23.7184 5.41819 20.7417 8.00581 18.8155 11.0051C16.6559 14.4161 15.3718 18.7092 15.1383 23.7668C14.9632 29.0597 15.4301 33.6469 16.7142 37.3519C17.9984 41.2333 19.3992 45.35 19.5743 49.5255C19.7494 53.5246 18.4653 57.406 15.8971 60.9934C1.77196 80.5771 -2.08035 106.806 5.68264 129.683C7.08348 133.682 8.77616 137.681 10.4105 141.445C12.2783 145.856 14.3795 150.443 15.7804 155.03C19.1657 165.792 18.9322 174.085 15.1967 181.083C15.0799 181.201 15.0216 181.259 14.9048 181.259H6.2319C6.05679 181.259 5.82332 181.083 5.82332 180.848C5.82332 180.671 5.99842 180.436 6.2319 180.436H14.613C18.1735 173.673 18.3486 165.675 15.0799 155.148C13.6207 150.561 11.6362 145.974 9.71005 141.563C8.01737 137.74 6.32469 133.8 4.98222 129.683C-2.83914 106.689 1.01317 80.1654 15.1967 60.3465C17.7649 56.8767 18.9322 53.0541 18.7571 49.2903C18.582 45.1736 17.2979 41.1745 16.0138 37.2931C14.7297 33.4704 14.2044 28.8833 14.4379 23.414C14.613 18.2387 15.8971 13.828 18.1735 10.3582C20.2747 7.18248 23.3099 4.59485 27.1038 2.77175C31.89 0.595784 37.3183 -0.109933 42.1628 1.12507C49.8091 2.94817 55.821 9.00558 60.6656 14.0044L77.3589 14.7101C77.534 14.7101 77.6508 14.8277 77.6508 15.0042C78.3512 17.827 76.3667 20.8852 74.0903 22.4142C71.8139 23.8845 69.0706 24.2961 66.3857 24.5314C64.9265 24.649 63.2922 24.7078 61.833 24.7078C61.833 28.1776 61.9497 32.0002 63.5256 35.2935C63.8175 35.764 63.9926 36.2933 64.3428 36.7638C64.8097 37.5871 65.2183 38.3517 65.5102 39.175C66.2106 40.8805 66.0938 42.586 65.3351 43.7622C64.7514 44.6443 63.7591 45.1736 62.8836 45.6441C62.1832 46.0557 61.5995 46.3498 61.0742 46.8203C59.2647 48.4081 59.4982 51.2898 60.1986 53.2305C60.3154 53.6422 60.4905 54.0539 60.6656 54.4067C61.2493 55.877 61.9497 57.5236 61.4827 59.1115C61.0742 60.5817 59.6733 61.8168 57.8055 62.4049C56.93 62.6989 55.9961 62.8165 55.2373 62.9929C54.5369 63.1106 53.8365 63.1694 53.1361 63.4046C48.4082 64.6984 44.8478 69.2856 44.9061 74.2844C44.9061 74.4609 44.7894 74.5785 44.6143 74.6961C44.4392 74.8137 44.3225 74.6961 44.2057 74.5785C39.8281 68.8151 32.6488 64.8749 24.8858 63.8751C29.3218 65.463 33.2909 68.3446 36.8513 71.0499C43.1551 75.7547 49.6923 80.5183 55.3541 86.4581C61.6578 92.9271 66.0355 99.7491 68.3118 106.747C70.4131 113.216 70.7633 120.156 71.1719 126.743L72.7478 152.737C73.0397 153.031 73.1564 153.56 72.9229 154.148C72.8062 154.325 72.6311 154.442 72.456 154.325C66.7359 152.443 60.7823 151.208 54.7704 150.855C54.6537 150.855 54.5953 150.737 54.4785 150.737C54.3618 150.619 54.3618 150.561 54.3618 150.443C54.9455 146.326 54.2451 142.151 53.4863 138.034C53.0193 135.211 52.494 132.33 52.3773 129.448C52.2606 126.331 52.6691 123.155 52.961 120.156C53.4279 116.157 53.8365 111.981 53.2528 107.982C52.961 110.805 52.5524 113.452 52.2606 116.157C51.852 119.627 51.385 123.273 51.0932 126.743C50.9764 127.625 50.9181 128.566 50.2177 129.154C49.2254 130.154 47.5327 129.86 46.4821 129.683C39.8281 128.389 32.8239 129.095 26.6952 131.683L26.2867 131.859C24.7107 132.565 22.8429 133.329 21.0335 132.859C18.3486 132.153 17.1812 128.978 17.0645 126.566C16.9477 125.684 17.0645 124.861 17.0645 123.979C17.0645 122.861 17.0645 121.803 16.9477 120.803C15.6636 127.213 17.7649 133.682 19.9245 139.798L31.7149 172.732C45.4898 180.142 61.8913 180.848 75.4328 174.614C77.0087 173.908 78.5847 173.144 80.1022 172.32C84.9468 169.85 89.9081 167.204 95.3364 167.321C96.7372 167.321 98.0797 167.498 99.4805 167.616C102.341 167.91 105.026 168.321 107.594 167.439C111.446 166.145 114.715 163.264 116.582 159.676C116.699 159.5 116.874 159.5 117.049 159.5C118.217 160.088 119.734 160.382 121.194 160.617C122.361 160.735 123.878 160.441 124.754 159.206C125.163 158.676 125.338 158.088 125.571 157.5C125.746 157.03 125.863 156.5 126.155 156.03C121.194 155.618 116.758 154.442 112.905 152.619C111.213 151.796 110.454 150.737 110.512 149.62C110.687 148.149 112.38 147.62 113.664 147.326L113.956 147.209C117.224 146.209 119.676 143.033 119.793 139.504C117.925 139.034 116.057 140.093 115.065 140.798C114.598 141.21 113.956 141.622 113.489 142.092C112.497 142.915 111.621 143.68 110.395 144.268C108.703 145.15 106.718 145.385 104.85 145.562C102.457 145.856 100.298 146.032 98.605 147.444C97.7295 148.149 97.1458 149.149 96.4454 150.149C95.9784 150.972 95.3364 151.737 94.6359 152.443C92.6514 154.442 89.6163 155.442 85.4138 155.56C84.4215 155.56 83.3125 155.56 82.3202 155.56C80.1606 155.442 77.9426 155.442 75.783 155.854C75.6079 155.854 75.3744 155.736 75.3744 155.677C75.2577 155.501 75.3744 155.265 75.5495 155.207C79.11 153.384 82.7872 152.619 86.3476 152.795L82.4953 145.621C80.3357 145.033 77.534 144.503 74.7907 145.033C74.674 145.033 74.4989 145.033 74.4989 144.915C74.3821 144.797 74.3821 144.739 74.3821 144.621C75.2577 140.739 75.0826 136.505 73.7985 132.624C73.7985 132.506 73.7985 132.447 73.9152 132.33C74.0319 132.212 74.0903 132.153 74.207 132.153C76.4834 132.271 78.7598 132.153 80.9194 131.977C81.0945 131.977 81.328 132.094 81.328 132.271L81.7366 134.976L80.861 92.9271C80.861 92.7507 80.9778 92.5154 81.1529 92.5154L129.365 91.8097C129.482 91.8097 129.54 91.8097 129.54 91.8097L144.774 99.9255C144.891 100.043 144.949 100.102 144.949 100.337C144.949 100.514 144.774 100.631 144.658 100.631L89.9665 102.395C89.8497 102.395 89.7914 102.395 89.6746 102.278L84.3048 96.044L87.6901 101.925C87.6901 101.925 87.6901 102.043 87.8069 102.101L90.3751 150.031C92.0677 145.856 95.2196 141.857 99.8891 137.975C104.267 134.27 108.294 132.388 112.263 131.977C116.641 131.565 122.069 133.565 123.937 138.269C124.521 139.74 124.754 141.445 124.929 142.974C125.046 143.798 125.104 144.444 125.221 145.268C125.805 148.444 127.322 151.443 129.482 153.854L145.883 152.149L145.767 149.443C143.198 149.443 140.338 148.973 137.653 148.032C137.245 147.914 136.836 147.738 136.544 147.444C136.136 147.15 135.961 146.562 136.136 146.032C136.428 145.327 137.245 145.209 137.829 145.15L142.79 144.974C141.622 144.856 140.513 144.856 139.346 144.856C139.054 144.856 138.762 144.856 138.471 144.974C137.303 145.091 136.019 145.15 134.793 144.856C133.626 144.562 132.517 143.974 131.641 143.386C131.35 143.209 130.941 142.915 130.824 142.386C130.708 141.916 130.941 141.504 131.233 141.21C131.116 141.21 131.058 141.21 130.941 141.21C130.124 141.092 129.248 140.622 129.073 139.622C128.898 138.74 129.54 137.799 130.241 137.446C130.708 137.27 131.233 137.152 131.7 137.034C131.233 136.623 130.883 136.152 130.883 135.447C130.883 134.623 131.583 133.976 132.692 133.329C134.385 132.506 136.369 132.036 138.938 131.859C140.046 131.742 141.214 131.742 142.323 131.742C143.315 131.742 144.307 131.742 145.3 131.624C146.7 131.506 148.043 131.33 149.444 131.153C148.16 130.565 147.051 129.566 146.467 128.86C145.65 127.978 145.591 126.743 145.65 125.449C145.65 125.155 145.65 124.743 145.942 124.332C146.234 124.037 146.642 123.802 147.109 123.802C146.7 123.685 146.292 123.685 145.942 123.92C145.825 124.037 145.767 124.037 145.533 123.92C145.416 123.802 145.358 123.743 145.358 123.626L144.774 100.984C144.774 100.866 144.774 100.808 144.891 100.69C145.008 100.572 145.066 100.572 145.183 100.572C145.475 100.572 145.65 100.69 145.883 100.866C145.942 101.984 145.767 109.041 145.767 109.923C145.767 110.217 145.767 110.511 145.767 110.746C145.767 111.452 146.234 112.04 146.467 112.628C146.642 113.216 147.051 113.628 147.459 114.099C147.868 114.569 148.276 115.098 148.568 115.687C148.743 116.275 148.86 116.804 148.86 117.392C148.86 117.804 148.977 118.215 149.035 118.568C149.21 119.156 149.502 119.744 149.911 120.391C150.086 120.568 150.203 120.862 150.378 121.097C151.078 122.273 151.253 123.391 150.845 124.273C150.845 124.39 150.728 124.39 150.728 124.449C150.553 124.567 150.436 124.861 150.436 125.272C150.436 125.684 150.553 126.096 150.845 126.272C151.312 126.684 152.012 126.743 152.712 126.86H152.829C157.79 127.684 162.518 130.036 166.079 133.623C170.748 138.211 177.169 140.093 183.473 142.033C186.741 143.033 190.185 144.033 193.337 145.444C193.512 145.562 193.512 145.621 193.512 145.856C193.103 148.032 192.695 150.443 192.344 152.737C191.936 155.03 191.527 157.206 191.177 159.441C191.177 159.559 191.06 159.617 191.002 159.735C190.885 159.853 190.827 159.853 190.71 159.735C184.873 156.912 178.745 154.148 173.083 150.62L172.207 150.031C169.056 148.032 165.904 146.032 162.226 146.032C160.067 146.032 157.849 146.738 155.689 147.444C154.288 147.914 152.946 148.326 151.545 148.62C154.697 148.914 157.674 148.62 160.534 147.738C162.11 147.209 164.503 146.444 165.904 148.032C166.896 149.149 166.721 150.619 166.371 152.149C166.254 152.737 166.196 153.442 166.196 154.03C166.196 155.501 167.013 156.912 167.888 158.324C168.297 159.029 168.764 159.794 169.056 160.617C170.34 163.616 170.048 166.91 169.756 170.086C169.464 173.496 169.172 176.79 170.573 179.554C171.857 182.142 174.717 183.965 177.577 184.023C179.97 184.141 182.13 183.141 184.406 182.2C186.566 181.318 188.784 180.318 191.119 180.318C193.804 180.318 196.372 181.318 198.765 182.318C201.742 183.612 204.602 184.788 207.579 184.023C208.454 183.847 209.271 183.435 210.03 183.024C210.614 182.73 211.314 182.436 212.015 182.142C214.174 181.318 216.567 181.318 218.727 182.142C217.443 180.142 217.034 177.437 216.918 175.437C216.801 172.85 217.385 170.262 218.027 167.733C216.042 167.439 214.058 167.145 212.073 166.851C209.972 166.557 207.929 166.145 205.769 165.969C199.932 165.263 194.913 164.381 191.236 160.852C191.119 160.735 191.06 160.558 191.119 160.382C193.804 156.383 194.796 151.09 193.804 146.326C193.804 146.209 193.804 146.032 193.92 145.915C194.037 145.797 194.212 145.797 194.329 145.915C196.781 147.326 199.991 148.032 203.434 147.914C200.983 139.328 201.975 129.213 206.003 120.568C204.894 121.391 203.901 122.861 203.143 124.978C201.041 130.271 200.049 136.152 200.166 141.857V141.974C200.166 142.68 200.166 143.386 199.991 143.974C199.816 144.68 199.174 145.444 198.298 145.562C197.189 145.738 196.314 144.974 195.613 144.268L195.496 144.15C193.92 142.68 191.819 141.68 189.66 141.328C188.784 141.21 187.85 141.21 187.091 141.151C185.515 141.151 183.823 141.034 182.247 140.445C181.255 140.034 180.379 139.328 179.562 138.74C179.153 138.446 178.745 138.152 178.394 137.858C176.118 136.388 173.433 135.564 170.69 135.741C170.573 135.741 170.515 135.741 170.398 135.623C170.281 135.505 170.281 135.447 170.281 135.329C170.982 132.036 170.165 128.448 169.406 125.037C168.705 122.156 168.122 119.274 168.238 116.275C168.53 111.687 170.923 107.394 173.2 103.807C173.608 103.219 174.017 102.631 174.367 101.984C176.352 98.8669 178.394 95.8088 179.62 92.2802C179.737 91.8685 179.912 91.4569 180.029 90.9864C180.437 89.5162 180.904 87.8695 181.897 86.6933C183.064 85.223 185.048 84.1057 187.325 83.8116C189.309 83.5176 191.177 83.694 193.162 83.9292C193.745 81.6357 194.271 77.519 192.344 73.3435C190.944 73.3435 189.484 73.4611 187.967 73.4611C186.391 73.5787 184.815 73.5787 183.297 73.5787C182.83 73.5787 182.13 73.5787 181.488 73.2847C180.496 72.8142 180.204 71.4615 180.029 70.5794C179.912 69.7561 179.854 68.8739 179.737 67.9918C179.562 65.8158 179.328 63.6987 178.278 61.9932C178.103 61.6991 177.869 61.4051 177.694 61.1698C177.11 60.3465 176.41 59.4644 176.41 58.347C176.41 57.3472 176.819 56.5239 177.285 55.6417C177.577 55.1712 177.869 54.642 177.986 54.1715C178.394 52.76 177.869 51.3486 177.402 49.7607C177.227 49.2903 177.11 48.761 176.935 48.2905C175.534 43.4681 177.752 37.8224 181.955 35.1171C184.115 33.7057 187.091 34.8231 189.251 35.5288C191.702 36.3521 193.687 37.94 194.796 39.9983C194.971 40.41 195.205 40.8805 195.496 41.2921C195.963 42.4095 196.605 43.4681 197.481 44.115C198.065 44.5267 198.765 44.5855 199.465 44.8207C200.574 44.9972 201.625 45.2324 202.325 46.1145C202.792 46.585 203.026 47.2907 203.201 47.9965C203.318 48.1729 203.318 48.4081 203.376 48.5846C203.493 48.9962 203.96 49.996 204.777 50.0548C205.361 50.1724 205.944 49.6431 206.586 49.1727C207.228 48.7022 207.754 48.1729 208.571 48.0553C209.855 47.8788 210.964 48.8786 211.256 50.0548C211.548 50.9369 211.431 52.0543 210.964 53.3481C210.147 55.5241 208.863 57.4648 207.228 58.9351C207.812 59.0527 208.337 59.1115 208.688 59.3467C209.68 59.7584 210.497 60.5229 211.139 61.2287C211.314 61.4051 211.606 61.6991 211.956 61.9344C212.365 60.1113 213.065 58.4646 213.824 56.6415C213.999 56.2298 214.233 55.8182 214.408 55.4653C215.108 54.1715 215.809 52.76 216.1 51.2898C216.509 49.1727 215.984 46.7026 214.641 44.4091C213.474 42.2919 211.664 40.5276 209.972 38.7045C208.162 36.8226 206.295 34.8819 204.135 33.4116C198.882 29.9419 191.469 29.4126 185.807 32.4119C185.34 32.7059 184.815 32.8823 184.348 33.2352C182.655 34.1174 181.196 35.0583 179.212 35.3524C179.095 35.3524 179.037 35.3524 178.92 35.2347C177.461 33.6469 177.519 31.1181 178.511 29.5302C179.503 27.6483 181.255 26.4133 182.772 25.6487C192.169 20.2382 204.952 20.8263 213.766 27.2366C213.941 27.3542 214.174 27.5307 214.349 27.7071C214.466 27.7071 214.641 27.5895 214.758 27.5895C215.867 27.413 216.918 27.7071 217.91 28.0011C221.062 28.8833 224.739 29.883 227.424 32.2942C229.525 34.1762 230.693 36.7638 231.86 39.0574C233.844 43.0564 236.004 47.526 235.887 52.466C235.887 53.8774 235.595 55.2889 235.42 56.6415C235.012 59.1115 234.603 61.5227 235.304 63.8163C235.712 65.2277 236.588 66.5215 237.405 67.6977L237.522 67.8742C238.397 69.2856 239.331 70.697 239.681 72.2849C240.09 74.1668 239.681 75.9899 238.572 77.1073C237.872 77.813 236.88 78.2247 235.887 78.2247C235.304 78.2247 234.778 78.0482 234.311 77.7542C234.195 78.0482 234.019 78.4599 233.728 78.754C233.144 79.4597 232.152 79.8714 231.276 79.8714C230.167 79.8714 229.117 79.4597 228.124 78.9892C227.832 78.8716 227.541 78.8128 227.249 78.5775C226.14 78.1659 224.681 77.8718 223.572 78.5775C223.455 78.6952 223.28 78.6952 223.105 78.5775C222.988 78.4599 222.988 78.2835 222.988 78.107C223.805 76.8132 222.871 75.1078 222.579 74.6373C222.404 74.3432 222.171 73.9316 221.879 73.6375C221.295 72.8142 220.712 71.932 220.478 70.9323C220.011 69.0504 220.653 67.2273 221.47 65.463C221.587 65.1689 221.762 64.8749 221.879 64.5808C223.28 60.8758 223.572 56.8767 223.863 52.9953C224.155 49.1138 224.447 44.9972 223.396 41.2333C222.521 37.94 220.303 35.3524 217.56 34.0585C219.369 35.9405 220.828 38.3517 221.996 41.1745C221.996 41.2921 221.996 41.351 221.996 41.351C221.295 43.6445 221.529 46.1734 221.587 48.5257C221.587 48.9374 221.587 49.4079 221.704 49.8196C221.82 52.6424 221.704 55.8182 220.011 58.4058C219.427 59.2879 218.61 60.1113 217.91 60.817C216.801 61.9344 215.809 62.9341 215.342 64.2868C215.167 64.6984 214.758 66.1099 213.649 65.757C213.182 65.6394 212.832 65.0513 212.773 64.6396C212.657 64.3456 212.482 63.9339 212.306 63.6399C212.131 64.7572 212.015 65.9334 212.015 67.0508C212.015 70.6382 213.124 74.0492 215.108 76.7544C215.225 76.8721 215.225 77.0485 215.108 77.2249C210.847 81.9297 205.302 85.6347 199.991 89.1045L198.59 89.9866C197.014 91.104 195.321 92.1626 193.745 93.574C195.555 94.3974 198.181 95.1619 200.75 94.7502C203.143 94.2797 205.186 92.6331 207.053 91.0452C209.505 88.7516 211.898 86.2228 213.999 83.6352C215.4 81.8121 216.976 79.4597 216.392 77.1661C216.392 76.9897 216.509 76.7544 216.684 76.6956C216.859 76.578 217.093 76.8132 217.151 76.9897C217.968 79.5773 220.128 81.4592 221.879 82.8118C222.579 83.2823 223.28 83.8116 224.038 84.2821C225.498 85.2819 227.015 86.2816 228.299 87.5754C231.043 90.2807 233.027 94.1621 234.019 99.2786C235.304 105.277 235.187 111.981 233.844 119.45C232.56 126.155 230.459 132.624 228.416 138.916C227.249 142.386 226.548 146.209 225.848 149.796C225.147 153.266 224.447 156.971 223.396 160.382C222.696 162.558 221.821 164.969 219.953 166.263C221.062 167.733 221.354 169.733 221.412 171.262C221.412 171.732 221.412 172.261 221.529 172.732C221.529 174.026 221.645 175.202 221.937 176.437C222.346 177.848 223.338 179.554 224.914 179.907L238.953 180.318C239.128 180.318 239.362 180.495 239.362 180.73C239.362 180.907 239.187 181.142 238.953 181.142L224.797 180.671C222.696 180.201 221.645 178.26 221.12 176.555C220.828 175.261 220.712 173.967 220.712 172.732C220.712 172.261 220.712 171.732 220.595 171.262C220.478 169.791 220.186 167.792 219.136 166.439C219.019 166.322 219.019 166.263 219.019 166.145C219.019 166.028 219.136 165.969 219.194 165.851C221.178 164.734 222.054 162.264 222.754 160.147C223.863 156.736 224.564 153.148 225.206 149.561C225.906 145.856 226.607 142.092 227.774 138.563C229.875 132.271 231.918 125.802 233.202 119.215C234.603 111.746 234.662 105.218 233.377 99.3374C232.385 94.4562 230.517 90.6335 227.832 88.0459C226.548 86.8697 225.089 85.8699 223.688 84.8702C222.988 84.3997 222.229 83.8704 221.529 83.3999C220.069 82.2825 218.377 80.9299 217.268 78.9892C216.976 80.8711 215.809 82.6942 214.7 84.1057C212.598 86.8109 210.264 89.2809 207.695 91.5745C205.828 93.28 203.668 94.9855 201.041 95.4559C198.298 95.9852 195.38 94.9855 193.512 94.1621C193.395 94.1621 193.395 94.0445 193.337 94.0445C190.36 96.5145 187.617 99.6314 185.807 103.336C185.632 103.748 185.399 104.219 185.224 104.63C185.107 104.807 184.932 104.924 184.757 104.807C184.582 104.689 184.465 104.513 184.582 104.336C184.757 103.866 184.99 103.454 185.165 103.042C186.624 99.161 187.266 94.8678 186.624 90.6335C186.624 90.5159 186.624 90.4571 186.741 90.3395C186.858 90.2219 186.916 90.2219 187.033 90.2219C188.492 90.6335 189.893 91.3393 191.177 92.1038C191.761 92.5155 192.461 92.8095 193.162 93.2212C194.971 91.7509 196.722 90.5159 198.415 89.3397L199.816 88.4576C205.069 84.9878 210.38 81.3416 214.583 76.8721C212.715 74.0492 211.606 70.697 211.606 66.992C211.606 65.5806 211.723 64.1691 212.015 62.8165C211.606 62.4048 211.314 61.9932 210.906 61.6991C210.205 60.9934 209.505 60.2877 208.629 59.876C208.162 59.6996 207.053 59.2879 206.236 59.6996C206.119 59.8172 206.061 59.8172 205.944 59.876C205.769 59.9937 205.536 59.9936 205.477 59.7584C205.361 59.582 205.361 59.3467 205.594 59.2879C205.711 59.1703 205.769 59.1115 205.886 59.1115C207.987 57.6413 209.622 55.4065 210.439 52.9953C210.847 51.8191 210.906 50.8781 210.731 50.1724C210.555 49.3491 209.738 48.5846 208.863 48.761C208.279 48.8786 207.754 49.2315 207.287 49.7607C206.586 50.3488 205.886 50.9369 204.894 50.8781C204.077 50.7605 203.318 50.0548 202.909 48.8786C202.792 48.7022 202.792 48.4669 202.734 48.2905C202.559 47.7024 202.326 47.1143 202.034 46.7026C201.45 45.9969 200.574 45.8205 199.582 45.5853C198.765 45.4088 198.006 45.2912 197.306 44.8795C196.138 44.1738 195.496 42.9976 195.029 41.7626C194.854 41.351 194.621 40.9393 194.446 40.5864C193.337 38.7045 191.586 37.2931 189.309 36.4697C187.325 35.764 184.582 34.7643 182.655 35.9993C178.686 38.4693 176.702 43.7622 177.986 48.2905C178.103 48.761 178.278 49.2903 178.453 49.7019C178.92 51.2898 179.562 52.8777 179.037 54.5243C178.861 55.1124 178.57 55.6417 178.219 56.1122C177.811 56.9355 177.402 57.5825 177.402 58.4058C177.402 59.2879 177.986 59.9937 178.57 60.6994C178.745 60.9934 178.978 61.2875 179.153 61.5815C180.321 63.4634 180.554 65.757 180.729 67.9918C180.846 68.8151 180.846 69.6973 181.021 70.4618C181.196 71.5792 181.488 72.2849 182.13 72.5789C182.539 72.7554 183.006 72.7554 183.531 72.7554C184.99 72.7554 186.624 72.6377 188.2 72.6377C189.776 72.5201 191.352 72.5201 192.87 72.5201C193.045 72.5201 193.162 72.6377 193.162 72.6966C194.738 76.1663 195.029 80.283 194.037 84.2821C194.037 84.4585 193.862 84.5761 193.629 84.5761C191.644 84.3997 189.66 84.1645 187.675 84.4585C185.515 84.7526 183.706 85.7523 182.714 87.0462C181.838 88.2223 181.43 89.6338 180.904 91.1628C180.788 91.5745 180.612 92.045 180.496 92.4566C179.328 96.044 177.227 99.2198 175.126 102.337C174.717 102.925 174.309 103.513 173.958 104.16C171.565 107.865 169.406 111.864 169.114 116.216C168.939 119.039 169.581 121.92 170.281 124.684C171.098 128.095 171.857 131.448 171.274 134.858C173.958 134.741 176.702 135.564 178.978 137.152C179.387 137.446 179.795 137.74 180.262 138.034C181.079 138.622 181.838 139.21 182.714 139.622C184.115 140.21 185.574 140.21 187.266 140.328C188.142 140.328 189.076 140.328 189.951 140.504C192.228 140.798 194.504 141.916 196.197 143.504L196.314 143.621C197.014 144.209 197.598 144.797 198.415 144.739C198.998 144.621 199.407 144.033 199.524 143.621C199.699 143.033 199.699 142.445 199.641 141.798V141.68C199.524 135.917 200.516 129.977 202.617 124.508C203.785 121.509 205.186 119.686 206.995 119.097C207.112 118.98 207.287 119.097 207.404 119.215C207.52 119.333 207.52 119.509 207.52 119.627C203.084 128.507 201.975 139.093 204.66 147.973C204.66 148.091 204.66 148.149 204.66 148.267C204.543 148.385 204.485 148.444 204.368 148.444C200.925 148.62 197.656 148.032 195.088 146.738C195.905 151.443 194.796 156.442 192.344 160.323C195.905 163.499 200.75 164.322 206.295 165.028C208.454 165.322 210.555 165.616 212.598 165.91C214.7 166.204 216.742 166.616 218.902 166.792C219.019 166.792 219.077 166.91 219.194 166.969C219.311 167.086 219.311 167.145 219.311 167.263C218.727 169.85 218.027 172.438 218.143 175.143C218.26 177.437 218.61 180.612 220.712 182.553C220.828 182.671 220.887 182.847 220.712 183.024C220.595 183.2 220.42 183.2 220.245 183.141C217.968 181.965 215.108 181.73 212.715 182.671C212.131 182.847 211.431 183.141 210.847 183.494C210.03 183.906 209.155 184.317 208.162 184.612C207.52 184.964 206.82 185.082 206.003 185.082ZM145.767 108.159L145.883 110.452C145.883 110.276 145.883 110.041 145.883 109.864C145.883 109.394 145.883 108.688 145.767 108.159ZM187.617 91.2216C187.909 94.1033 187.733 97.2202 187.033 99.9843C188.609 97.5731 190.593 95.5147 192.695 93.6916C192.111 93.3976 191.527 93.1035 191.002 92.8095C189.893 92.2214 188.784 91.5745 187.617 91.2216ZM225.673 77.4013C226.373 77.4013 227.132 77.5778 228.066 77.8718C228.358 77.9894 228.65 78.0482 228.941 78.2835C229.934 78.6952 230.809 79.1068 231.802 79.1068C232.502 79.1068 233.261 78.8128 233.786 78.2835C233.961 78.1071 234.253 77.6954 234.195 77.1073C234.195 76.9309 234.311 76.8132 234.37 76.6956C234.486 76.578 234.662 76.6956 234.778 76.8132C235.187 77.2249 235.654 77.519 236.354 77.519C237.171 77.519 237.93 77.2249 238.455 76.6956C239.564 75.5782 239.623 73.8139 239.331 72.5789C238.922 71.1087 238.164 69.7561 237.23 68.4623L237.113 68.2858C236.237 66.992 235.42 65.6982 234.953 64.1691C234.136 61.6991 234.545 59.0527 235.07 56.5827C235.245 55.1712 235.537 53.7598 235.537 52.466C235.654 47.7612 233.436 43.3505 231.568 39.469C230.459 37.2931 229.175 34.6466 227.307 32.8823C224.856 30.5888 221.295 29.589 218.202 28.7069C217.326 28.5304 216.392 28.2364 215.458 28.2952C215.75 28.5892 215.925 28.8833 216.042 29.295C216.217 29.8831 216.217 30.4711 215.925 31.1181C215.75 31.5297 215.342 31.9414 214.933 32.0002C214.466 32.1766 213.824 32.0002 213.357 31.5885C212.89 31.1181 212.54 30.4123 212.657 29.7066C212.773 28.8833 213.357 28.2952 213.941 28.0011C213.824 27.8835 213.766 27.8835 213.649 27.8247C205.127 21.7085 192.753 21.0028 183.531 26.2957C182.13 27.119 180.437 28.1776 179.562 29.883C178.745 31.2945 178.686 33.294 179.737 34.5878C181.43 34.2938 182.889 33.4704 184.406 32.5883C184.873 32.2942 185.399 32.1178 185.866 31.765C191.819 28.648 199.349 29.0597 204.835 32.8823C207.112 34.3526 208.979 36.3521 210.789 38.2928C212.482 40.1159 214.233 41.8802 215.517 44.0562C216.976 46.5262 217.501 49.1727 217.093 51.4662C216.801 53.0541 216.1 54.4655 215.283 55.877C215.108 56.2886 214.875 56.7003 214.7 57.0532C213.824 58.8763 213.124 60.7582 212.715 62.6401C213.124 63.1106 213.532 63.6399 213.707 64.228C213.824 64.522 213.999 64.8161 214.174 64.9337C214.466 65.0513 214.758 64.4632 214.991 63.9339C215.575 62.4637 216.684 61.3463 217.735 60.2289C218.435 59.5232 219.194 58.7586 219.719 57.9353C221.295 55.5241 221.412 52.5248 221.295 49.8196C221.295 49.4079 221.295 48.9374 221.178 48.5257C221.062 46.1145 220.887 43.6445 221.587 41.2333C220.186 37.94 218.318 35.2347 216.159 33.2352C216.042 33.1176 215.984 32.9412 216.042 32.7647C216.159 32.5883 216.334 32.5883 216.451 32.5883C220.186 33.5881 223.28 36.7638 224.447 40.9981C225.556 44.9972 225.264 49.1138 224.914 52.9953C224.622 56.9944 224.33 60.9934 222.813 64.7572C222.696 65.0513 222.638 65.3453 222.404 65.6394C221.704 67.3449 221.003 69.0504 221.529 70.6382C221.704 71.5204 222.346 72.2261 222.813 73.0494C222.988 73.3435 223.28 73.7551 223.513 74.0492C224.214 75.2254 224.505 76.4604 224.33 77.4602C225.031 77.519 225.323 77.4013 225.673 77.4013ZM55.7627 16.592C55.0622 16.592 54.3034 16.7097 53.6614 16.8861C51.7936 17.3566 49.9842 18.5916 48.2915 19.709C47.8246 20.003 47.416 20.2971 46.8907 20.5911C41.6375 23.8845 35.6256 25.884 29.4969 26.2957C29.03 26.2957 28.6214 26.4133 28.0961 26.4133C26.6369 26.5309 25.1193 26.5897 23.7184 26.8837C22.5511 27.1778 20.3331 28.0011 19.3408 30.0007C18.5237 31.4121 18.9322 33.1764 20.158 34.1762C23.018 32.7059 26.1699 31.8826 29.2634 31.1769C40.3534 28.5892 50.0426 24.4137 57.9807 18.5916C58.0974 18.474 58.2725 18.474 58.4476 18.5916C58.5643 18.7092 58.6227 18.8856 58.5643 19.062C57.6888 20.944 55.8794 22.6494 53.8365 23.6492C56.2296 23.8256 58.6811 23.9433 61.0742 23.9433C61.0742 23.8256 61.0742 23.7668 61.0742 23.6492C61.0742 21.6497 61.0742 19.9442 60.1986 18.6504C59.3231 17.1801 57.5137 16.592 55.7627 16.592ZM214.641 28.5892C214.058 28.8833 213.532 29.2949 213.474 29.883C213.357 30.2947 213.591 30.7652 213.941 31.0592C214.058 31.1769 214.408 31.4709 214.816 31.2357C215.108 31.1181 215.283 30.9416 215.283 30.7652C215.458 30.3535 215.458 29.9419 215.4 29.589C215.225 29.1773 214.933 28.8833 214.641 28.5892Z" fill="black" stroke="black" stroke-width="0.988506"/>
<path d="M99.2726 101.573C99.1559 100.515 96.8211 74.9325 105.518 73.6975C107.211 73.4623 108.962 74.168 110.771 75.7559C117.542 81.6957 123.029 98.0448 123.029 100.868H122.153C122.153 98.2212 116.666 82.0485 110.187 76.4028C108.553 74.9914 107.036 74.3445 105.635 74.5797C101.607 75.1678 100.323 82.3426 99.973 88.2824C99.5645 94.869 100.148 101.397 100.207 101.456L99.2726 101.573Z" fill="black" stroke="black" stroke-width="0.988506"/>
<path d="M92.7985 93.2221H92.2148C92.2148 89.6935 93.4406 74.2853 98.9856 68.9337C100.386 67.581 102.021 66.9341 103.772 66.9929C106.398 67.1106 112.527 69.8158 112.469 92.1047V92.3399H111.885V92.1047C111.885 86.459 111.36 67.9339 103.772 67.581C102.196 67.5222 100.678 68.1103 99.3942 69.3453C93.9659 74.5794 92.7985 89.7523 92.7985 93.2221Z" fill="black" stroke="black" stroke-width="0.988506"/>
</g>
</svg>
