<svg width="48" height="48" viewBox="0 0 48 48" fill="none" xmlns="http://www.w3.org/2000/svg">
    <rect opacity="0.08" width="48" height="48" rx="24" fill="#FC5239"/>
    <g clip-path="url(#clip0)">
        <path d="M26.936 30.5008C26.421 31.0158 25.5912 31.0113 25.0812 30.5013L17.499 22.9193C16.988 22.4103 16.9846 21.58 17.499 21.0656C17.6241 20.9405 18.0151 20.5494 18.2536 20.3121L13.8217 15.8809C9.71584 20.5363 13.2362 26.0182 17.6095 30.3909C22.0044 34.786 27.4776 38.2734 32.1215 34.1781L27.6896 29.7468C27.5778 29.8587 27.3654 30.071 26.936 30.5008Z" fill="#FC5239"/>
        <path d="M19.258 19.3057C19.2612 19.3028 19.9686 18.5951 20.5953 17.9687C20.7791 17.7849 20.779 17.487 20.5952 17.3033L16.8136 13.5217C16.63 13.338 16.3323 13.3378 16.1485 13.5214C15.5402 14.129 14.8486 14.8208 14.8008 14.8687L19.2481 19.3151C19.2514 19.3118 19.2547 19.3085 19.258 19.3057Z" fill="#FC5239"/>
        <path d="M30.6997 27.4044C30.5159 27.2207 30.218 27.2207 30.0342 27.4044L28.6875 28.7512L33.1344 33.1977C33.3943 32.9389 34.0058 32.3267 34.4814 31.8491C34.6645 31.6652 34.664 31.3679 34.4805 31.1844L30.6997 27.4044Z" fill="#FC5239"/>
        <path d="M34.2424 22.2424C36.5859 19.899 36.5859 16.101 34.2424 13.7576C31.899 11.4141 28.101 11.4141 25.7576 13.7576C23.4141 16.101 23.4141 19.899 25.7576 22.2424C28.101 24.5859 31.9014 24.5859 34.2424 22.2424ZM27.8488 17.083L29.198 18.4322L32.1537 15.479L33.1993 16.5246L30.2461 19.4778L29.198 20.5234L28.1524 19.4778L26.8032 18.1286L27.8488 17.083Z" fill="#FC5239"/>
    </g>
    <defs>
        <clipPath>
            <rect x="12" y="12" width="24" height="24" fill="white"/>
        </clipPath>
    </defs>
</svg>