<svg width="48" height="48" viewBox="0 0 48 48" fill="none" xmlns="http://www.w3.org/2000/svg">
    <rect opacity="0.08" width="48" height="48" rx="24" fill="#FC5239"/>
    <path d="M32.919 33.3875L32.2413 16.4407C32.2261 16.0635 31.9161 15.7656 31.5387 15.7656H27.5348V15.5273C27.5348 13.5824 25.9524 12 24.0074 12C22.0625 12 20.4801 13.5824 20.4801 15.5273V15.7656H16.4761C16.0987 15.7656 15.7887 16.0635 15.7737 16.4407L15.0959 33.3875C15.068 34.0809 15.315 34.7357 15.7913 35.2313C16.2674 35.727 16.9119 36 17.6059 36H30.409C31.103 36 31.7475 35.727 32.2237 35.2313C32.7 34.7357 32.9468 34.0809 32.919 33.3875ZM21.8863 15.5273C21.8863 14.3578 22.8379 13.4062 24.0074 13.4062C25.1771 13.4062 26.1285 14.3578 26.1285 15.5273V15.7656H21.8863V15.5273ZM27.5348 23.0585C27.5348 25.0036 25.9524 26.5858 24.0074 26.5858C22.0625 26.5858 20.4801 25.0036 20.4801 23.0585V20.2343C20.4801 19.8461 20.795 19.5311 21.1832 19.5311C21.5716 19.5311 21.8863 19.8461 21.8863 20.2343V23.0585C21.8863 24.2281 22.8379 25.1796 24.0074 25.1796C25.1769 25.1796 26.1285 24.2281 26.1285 23.0585V20.2343C26.1285 19.8461 26.4435 19.5311 26.8316 19.5311C27.22 19.5311 27.5348 19.8461 27.5348 20.2343V23.0585Z" fill="#FC5239"/>
</svg>