<svg xmlns="http://www.w3.org/2000/svg" x="0px" y="0px" width="26" height="27" viewBox="0 0 26 27" fill="none">
<g clip-path="url(#clip0pitaniye)">
<path d="M25.647 11.9077C25.647 11.3714 25.2117 10.9361 24.6754 10.9361L18.7954 10.9361C17.9919 10.9361 17.338 10.2822 17.338 9.47872L17.338 8.81319L24.6754 8.81319C25.2117 8.81319 25.647 8.37792 25.647 7.84161C25.647 7.30529 25.2117 6.87003 24.6754 6.87003L17.338 6.87002L17.338 6.20498C17.338 5.40148 17.9919 4.74761 18.7954 4.74761L24.6754 4.74761C25.2117 4.74761 25.647 4.31234 25.647 3.77602C25.647 3.23971 25.2117 2.80444 24.6754 2.80444L18.7954 2.80444C16.9207 2.80444 15.3948 4.32983 15.3948 6.20498L15.3948 6.87002L10.1493 6.87002C9.81263 6.29145 9.19324 5.89844 8.47573 5.89844L1.94428 5.89844C0.871168 5.89844 0.00111563 6.76849 0.00111558 7.84161C0.00111553 8.91472 0.871168 9.78477 1.94428 9.78477L8.47573 9.78477C9.19324 9.78477 9.81263 9.39176 10.1493 8.81319L15.3948 8.81319L15.3948 9.47872C15.3948 11.3539 16.9207 12.8793 18.7954 12.8793L24.6754 12.8793C25.2122 12.8793 25.647 12.4445 25.647 11.9077Z" fill="#DDDDDD"></path>
<path d="M20.01 23.5491C23.3138 23.5491 26.0012 21.3698 26.0012 18.6912C26.0012 16.0125 23.3138 13.8333 20.01 13.8333C17.1166 13.8333 14.6959 15.5049 14.1392 17.7196L10.1494 17.7196C9.81273 17.141 9.19335 16.748 8.47584 16.748L1.94438 16.748C0.871273 16.748 0.00122054 17.618 0.00122049 18.6912C0.00122044 19.7643 0.871273 20.6343 1.94438 20.6343L8.47584 20.6343C9.19335 20.6343 9.81273 20.2413 10.1494 19.6627L14.1392 19.6627C14.6959 21.8775 17.1166 23.5491 20.01 23.5491Z" fill="#DDDDDD"></path>
</g>
<defs>
<clipPath id="clip0pitaniye">
<rect y="0.176758" width="26" height="26" fill="#DDDDDD"></rect>
</clipPath>
</defs>
</svg>