<svg xmlns="http://www.w3.org/2000/svg" width="24" height="25" viewBox="0 0 24 25" fill="none">
<path d="M17.6226 18.1801C16.4726 18.18 15.5369 17.2444 15.5369 16.0944V12.6307C15.5369 11.4806 16.4726 10.545 17.6226 10.545H23.0572C23.0901 10.545 23.1228 10.546 23.1554 10.5475V7.09707C23.1554 6.2089 22.4354 5.48889 21.5472 5.48889H1.60823C0.720004 5.48884 0 6.20884 0 7.09702V21.628C0 22.5162 0.720004 23.2362 1.60823 23.2362H21.5472C22.4354 23.2362 23.1554 22.5162 23.1554 21.628V18.1776C23.1228 18.1791 23.0901 18.1801 23.0572 18.1801H17.6226Z" fill="#DDDDDD"></path>
<path d="M23.0563 11.6877H17.6218C17.1011 11.6877 16.679 12.1099 16.679 12.6306V16.0943C16.679 16.615 17.1011 17.0371 17.6218 17.0371H23.0563C23.577 17.0371 23.9991 16.615 23.9991 16.0943V12.6306C23.9991 12.1098 23.577 11.6877 23.0563 11.6877ZM19.4944 15.7232C18.7429 15.7232 18.1336 15.1139 18.1336 14.3624C18.1336 13.6108 18.7429 13.0016 19.4944 13.0016C20.246 13.0016 20.8552 13.6108 20.8552 14.3624C20.8552 15.1139 20.246 15.7232 19.4944 15.7232Z" fill="#DDDDDD"></path>
<path d="M18.7479 2.54306C18.3881 1.45405 17.2136 0.86291 16.1247 1.2227L7.95459 3.92188H19.2034L18.7479 2.54306Z" fill="#DDDDDD"></path>
</svg>