<svg xmlns="http://www.w3.org/2000/svg" width="24" height="25" viewBox="0 0 24 25" fill="none">
<g clip-path="url(#clip0producti)">
<path d="M20.8453 8.67895C19.4886 7.04477 17.8793 6.29804 15.9071 6.10143C15.5865 6.06953 15.6311 6.06512 15.546 6.06512C14.5088 6.06512 13.5917 6.16953 12.674 6.39227C12.5924 5.90803 12.4554 5.44718 12.2652 5.01084C14.4727 5.18965 16.4114 3.60796 16.7066 1.43709C16.7493 1.12334 16.5923 0.816165 16.313 0.667026C14.1576 -0.4841 11.4688 0.46625 10.529 2.73949C9.89027 2.20276 9.11561 1.73182 8.18556 1.3147C7.80394 1.14355 7.35586 1.31413 7.18471 1.69576C7.01356 2.07738 7.18414 2.52551 7.56577 2.69666C9.61457 3.61553 10.7652 4.7952 11.1257 6.36591C8.46448 5.79671 5.96439 6.05575 3.95066 7.83836C2.69915 8.93667 1.93949 10.3687 1.68708 11.9336C1.49875 13.1097 1.63123 15.102 2.13814 16.7947C2.637 18.5494 3.50107 20.1725 4.7088 21.6217C5.05824 22.0367 5.49312 22.553 6.01787 22.9729C8.42383 24.8794 10.64 24.0363 11.9625 23.6883C12.3502 23.6418 15.4986 25.2396 18.1392 22.8488C20.8244 20.4046 22.3184 16.9079 22.3948 13.2419C22.42 11.5185 21.8987 9.98329 20.8453 8.67895Z" fill="#DDDDDD"></path>
</g>
<defs>
<clipPath id="clip0producti">
<rect y="0.176758" width="24" height="24" fill="white"></rect>
</clipPath>
</defs>
</svg>