<svg xmlns="http://www.w3.org/2000/svg" width="24" height="25" viewBox="0 0 24 25" fill="none">
<g clip-path="url(#clip0hrabenie)">
<path d="M2.00073 10.7483V21.3197C2.00073 21.9509 2.51237 22.4626 3.14359 22.4626H4.28645V24.1769H6.00072V22.4626H16.2865V24.1769H18.0007V22.4626H19.1436C19.7748 22.4626 20.2864 21.9509 20.2864 21.3197V10.7483H2.00073ZM6.28642 17.8912H4.57215V13.3197H6.28642V17.8912Z" fill="#DDDDDD"></path>
<path d="M19.1436 0.176758H3.14359C2.51242 0.176758 2.00073 0.688398 2.00073 1.31962V9.03388H20.2864V1.31962C20.2865 0.688398 19.7748 0.176758 19.1436 0.176758ZM6.28647 7.03391H4.5722V3.60534H6.28647V7.03391Z" fill="#DDDDDD"></path>
</g>
<defs>
<clipPath id="clip0hrabenie">
<rect y="0.176758" width="24" height="24" fill="white"></rect>
</clipPath>
</defs>
</svg>