<svg xmlns="http://www.w3.org/2000/svg" width="24" height="25" viewBox="0 0 24 25" fill="none">
<g clip-path="url(#clip0pohudenia)">
<path d="M19.5 0.176758H4.5C2.01415 0.176758 0 2.19091 0 4.67676V19.6768C0 22.1626 2.01415 24.1768 4.5 24.1768H19.5C21.9858 24.1768 24 22.1626 24 19.6768V4.67676C24 2.19091 21.9858 0.176758 19.5 0.176758ZM16.6154 11.2537H7.38462L3.69231 6.6383C3.69231 6.6383 6.46154 2.94599 12 2.94599C17.5385 2.94599 20.3077 6.6383 20.3077 6.6383L16.6154 11.2537Z" fill="#DDDDDD"></path>
<path d="M9.58351 10.3306L8.30769 4.79211L12 10.3306H9.58351Z" fill="#DDDDDD"></path>
</g>
<defs>
<clipPath id="clip0pohudenia">
<rect y="0.176758" width="24" height="24" fill="white"></rect>
</clipPath>
</defs>
</svg>