<svg width="48" height="48" viewBox="0 0 48 48" fill="none" xmlns="http://www.w3.org/2000/svg">
    <path d="M24 1C11.3178 1 1 11.3178 1 24C1 36.6822 11.3178 47 24 47C36.6822 47 47 36.6822 47 24C47 11.3178 36.6822 1 24 1ZM24 45.4667C12.1634 45.4667 2.53333 35.8366 2.53333 24C2.53333 12.1634 12.1634 2.53333 24 2.53333C35.8366 2.53333 45.4667 12.1634 45.4667 24C45.4667 35.8366 35.8366 45.4667 24 45.4667Z" fill="black" stroke="black" stroke-width="0.4"/>
    <path d="M24.001 8.57344C24.4242 8.57344 24.7677 8.23074 24.7677 7.80677V7.0401C24.7677 6.61614 24.4242 6.27344 24.001 6.27344C23.5778 6.27344 23.2344 6.61614 23.2344 7.0401V7.80677C23.2344 8.23074 23.5778 8.57344 24.001 8.57344Z" fill="black" stroke="black" stroke-width="0.4"/>
    <path d="M24.001 39.2402C23.5778 39.2402 23.2344 39.5829 23.2344 40.0069V40.7736C23.2344 41.1975 23.5778 41.5402 24.001 41.5402C24.4242 41.5402 24.7677 41.1975 24.7677 40.7736V40.0069C24.7677 39.5829 24.4242 39.2402 24.001 39.2402Z" fill="black" stroke="black" stroke-width="0.4"/>
    <path d="M40.8654 23.1406H40.0987C39.6755 23.1406 39.332 23.4833 39.332 23.9073C39.332 24.3313 39.6755 24.674 40.0987 24.674H40.8654C41.2886 24.674 41.632 24.3313 41.632 23.9073C41.632 23.4833 41.2886 23.1406 40.8654 23.1406Z" fill="black" stroke="black" stroke-width="0.4"/>
    <path d="M7.90052 23.1406H7.13385C6.71065 23.1406 6.36719 23.4833 6.36719 23.9073C6.36719 24.3313 6.71065 24.674 7.13385 24.674H7.90052C8.32372 24.674 8.66719 24.3313 8.66719 23.9073C8.66719 23.4833 8.32372 23.1406 7.90052 23.1406Z" fill="black" stroke="black" stroke-width="0.4"/>
    <path d="M35.384 11.4384L34.842 11.9804C34.5422 12.2802 34.5422 12.7647 34.842 13.0645C34.9915 13.214 35.1878 13.2891 35.384 13.2891C35.5803 13.2891 35.7766 13.214 35.9261 13.0645L36.4681 12.5225C36.7679 12.2227 36.7679 11.7382 36.4681 11.4384C36.1683 11.1386 35.6838 11.1394 35.384 11.4384Z" fill="black" stroke="black" stroke-width="0.4"/>
    <path d="M12.0715 34.7499L11.5295 35.292C11.2297 35.5917 11.2297 36.0763 11.5295 36.376C11.679 36.5255 11.8753 36.6007 12.0715 36.6007C12.2678 36.6007 12.4641 36.5255 12.6136 36.376L13.1556 35.834C13.4554 35.5342 13.4554 35.0497 13.1556 34.7499C12.8558 34.4502 12.3705 34.4509 12.0715 34.7499Z" fill="black" stroke="black" stroke-width="0.4"/>
    <path d="M35.9261 34.7492C35.6263 34.4495 35.1418 34.4495 34.842 34.7492C34.5422 35.049 34.5422 35.5335 34.842 35.8333L35.384 36.3753C35.5335 36.5248 35.7298 36.6 35.9261 36.6C36.1223 36.6 36.3186 36.5248 36.4681 36.3753C36.7679 36.0756 36.7679 35.591 36.4681 35.2913L35.9261 34.7492Z" fill="black" stroke="black" stroke-width="0.4"/>
    <path d="M12.6136 11.4377C12.3138 11.1379 11.8293 11.1379 11.5295 11.4377C11.2297 11.7375 11.2297 12.222 11.5295 12.5218L12.0715 13.0638C12.221 13.2133 12.4173 13.2884 12.6136 13.2884C12.8098 13.2884 13.0061 13.2133 13.1556 13.0638C13.4554 12.764 13.4554 12.2795 13.1556 11.9797L12.6136 11.4377Z" fill="black" stroke="black" stroke-width="0.4"/>
    <circle cx="24" cy="24" r="2.2" stroke="black" stroke-width="1.6"/>
    <rect x="23" y="11" width="2" height="11" rx="1" fill="black"/>
    <rect x="21.957" y="24.4082" width="2" height="8.33957" rx="1" transform="rotate(45 21.957 24.4082)" fill="black"/>
</svg>