<svg width="48" height="48" viewBox="0 0 48 48" fill="none" xmlns="http://www.w3.org/2000/svg">
    <g clip-path="url(#clip0)">
        <path d="M31.8218 33.9908L33.5122 33.4772C35.4324 32.8248 36.4601 30.7393 35.8077 28.8191C35.4407 27.7389 34.5924 26.8906 33.5122 26.5236L31.8218 26.01C30.3962 25.5778 28.8889 25.4871 27.4218 25.7452C26.1866 25.9806 25.1254 26.7648 24.5378 27.8764L11.6794 27.3012C10.9617 27.2242 10.2452 27.457 9.70981 27.9412C8.57081 28.9825 8.4916 30.7501 9.53291 31.8891C9.5892 31.9507 9.64821 32.0097 9.70981 32.066C10.23 32.5394 10.9255 32.7718 11.6258 32.706L24.5394 32.1276C25.1273 33.2377 26.1878 34.0206 27.4218 34.2556C28.8889 34.5137 30.3962 34.423 31.8218 33.9908ZM27.7002 32.6796C26.8128 32.5064 26.0847 31.874 25.789 31.0196C25.6671 30.6953 25.3503 30.4864 25.0042 30.502L11.4994 31.11C11.2345 31.138 10.9704 31.0506 10.7746 30.87C10.2977 30.3883 10.2977 29.6125 10.7746 29.1308C10.9862 28.9412 11.271 28.8551 11.5522 28.8956L25.0042 29.4988C25.3503 29.5144 25.6671 29.3055 25.789 28.9812C26.0847 28.1268 26.8128 27.4944 27.7002 27.3212C28.9182 27.1072 30.1695 27.1826 31.353 27.5412L33.0442 28.0548C34.1187 28.4522 34.6676 29.6454 34.2702 30.72C34.0601 31.2881 33.6122 31.7359 33.0442 31.946L31.353 32.4596C30.1694 32.8178 28.9182 32.8932 27.7002 32.6796Z" fill="black"/>
        <path d="M36 21.5996C36 21.1578 35.6418 20.7996 35.2 20.7996L28.3312 20.7996L26.1656 18.634C26.006 18.4738 25.7859 18.3886 25.56 18.3996L11.56 19.0996C11.2581 19.1163 10.9628 19.0067 10.7448 18.7972C10.303 18.3593 10.2998 17.6461 10.7378 17.2042C10.7401 17.2018 10.7425 17.1995 10.7448 17.1972C10.9628 16.9876 11.2581 16.8781 11.56 16.8948L25.56 17.5996C25.7858 17.6108 26.0058 17.5259 26.1656 17.366L28.3312 15.1996L35.2 15.1996C35.6418 15.1996 36 14.8414 36 14.3996C36 13.9578 35.6418 13.5996 35.2 13.5996L28 13.5996C27.7878 13.5996 27.5844 13.684 27.4344 13.834L25.2848 15.9828L11.6376 15.3004C10.1469 15.2278 8.8795 16.3774 8.8069 17.8681C8.7343 19.3588 9.8839 20.6262 11.3746 20.6988C11.4622 20.7031 11.5499 20.7031 11.6375 20.6988L25.2847 20.0164L27.4343 22.1652C27.5843 22.3152 27.7877 22.3996 27.9999 22.3996L35.1999 22.3996C35.6418 22.3996 36 22.0414 36 21.5996Z" fill="black"/>
        <path d="M36 16.8C36 16.3582 35.6418 16 35.2 16L28.8 16C28.3582 16 28 16.3582 28 16.8C28 17.2418 28.3582 17.6 28.8 17.6L35.2 17.6C35.6418 17.6 36 17.2418 36 16.8Z" fill="black"/>
        <path d="M36 19.2004C36 18.7586 35.6418 18.4004 35.2 18.4004L28.8 18.4004C28.3582 18.4004 28 18.7586 28 19.2004C28 19.6422 28.3582 20.0004 28.8 20.0004L35.2 20.0004C35.6418 20.0004 36 19.6422 36 19.2004Z" fill="black"/>
        <path d="M48 24C48 10.7452 37.2548 -4.69688e-07 24 -1.04907e-06C10.7452 -1.62846e-06 -4.69688e-07 10.7452 -1.04907e-06 24C-1.62846e-06 37.2548 10.7452 48 24 48C37.2486 47.985 47.985 37.2486 48 24ZM1.6 24C1.6 11.6288 11.6288 1.6 24 1.6C36.3712 1.6 46.4 11.6288 46.4 24C46.4 36.3712 36.3712 46.4 24 46.4C11.6347 46.3859 1.6141 36.3653 1.6 24Z" fill="black"/>
        <path d="M8.98469 26.5968C9.42439 26.5539 9.74609 26.1626 9.70319 25.7228C9.70219 25.7125 9.70099 25.7022 9.69959 25.6919L9.70039 25.6951C9.56959 24.5688 9.56959 23.431 9.70039 22.3047C9.75189 21.8657 9.43779 21.4682 8.99879 21.4167C8.55979 21.3652 8.16229 21.6793 8.11079 22.1183C7.96489 23.3674 7.96489 24.6292 8.11079 25.8783C8.15359 26.318 8.54489 26.6397 8.98469 26.5968Z" fill="black"/>
        <path d="M34.3078 36.2412C34.6463 35.9573 34.6906 35.4527 34.4066 35.1142C34.4057 35.1131 34.4047 35.112 34.4038 35.1108C34.119 34.7731 33.6144 34.7301 33.2766 35.0148C27.5506 39.8383 19.0837 39.4693 13.799 34.166C13.4871 33.853 12.9804 33.8521 12.6674 34.164C12.3544 34.4759 12.3535 34.9826 12.6654 35.2956C18.5367 41.1893 27.9449 41.6003 34.3078 36.2412Z" fill="black"/>
        <path d="M39.5516 27.7723C40.3009 24.6458 40.0995 21.3668 38.9732 18.3555C38.8177 17.9419 38.3563 17.7328 37.9428 17.8883C37.6311 18.0055 37.4248 18.3035 37.4245 18.6364C37.425 18.7321 37.4425 18.8269 37.4764 18.9163C38.4905 21.6281 38.6716 24.5809 37.9964 27.3963C37.8926 27.8258 38.1565 28.2581 38.586 28.3619C39.0155 28.4657 39.4478 28.2018 39.5516 27.7723Z" fill="black"/>
        <path d="M13.8388 13.7994C16.5311 11.1025 20.188 9.59095 23.9988 9.60015C27.0434 9.59225 30.011 10.5567 32.4692 12.353C32.8224 12.6185 33.3239 12.5474 33.5894 12.1942C33.8549 11.841 33.7838 11.3395 33.4306 11.074C33.4243 11.0693 33.418 11.0647 33.4116 11.0602C27.0528 6.43485 18.2757 7.11545 12.706 12.6658C12.393 12.9786 12.3928 13.486 12.7056 13.799C13.0184 14.112 13.5258 14.1122 13.8388 13.7994Z" fill="black"/>
    </g>
    <defs>
        <clipPath>
            <rect x="48" width="48" height="48" transform="rotate(90 48 0)" fill="white"/>
        </clipPath>
    </defs>
</svg>