<svg width="46" height="46" viewBox="0 0 46 46" fill="none" xmlns="http://www.w3.org/2000/svg">
    <g clip-path="url(#clip0)">
        <path d="M44.1628 13.8986C43.7587 13.786 43.3498 13.7799 42.9656 13.8625L43.6011 11.5815C44.1 9.79037 42.452 8.04351 40.6284 8.45959C40.8182 6.92782 39.5271 5.5575 37.9896 5.64869C36.6035 5.73099 35.9146 6.77346 35.576 7.98853C34.227 6.7209 31.9352 7.36851 31.4398 9.14708L27.6086 22.9121C27.5839 23.0013 27.4562 23.004 27.4281 22.9153L26.0635 18.6119C25.7479 17.6218 24.8717 16.9633 23.8966 16.8741L24.1094 16.4118C24.6836 15.1521 24.1258 13.6602 22.8661 13.0859C21.6174 12.5168 20.1076 13.0847 19.5399 14.3302L17.6746 18.4402C17.6361 18.5249 17.5098 18.5077 17.4957 18.4156L15.3256 4.29302C15.0449 2.4688 12.8465 1.55292 11.3561 2.65182C11.1654 1.41249 10.6196 0.294999 9.2549 0.041186C7.73561 -0.241467 6.27527 0.968298 6.28318 2.51786C4.52239 1.88984 2.67859 3.42952 2.96133 5.26658L3.32125 7.60516C1.56747 7.00454 -0.25252 8.53461 0.0289653 10.3639L2.14509 24.1143C2.45829 26.1497 3.11883 28.0945 4.10901 29.8977L3.7499 38.5636C3.70974 39.5336 4.59579 40.3315 5.56001 40.1827L20.7714 37.8418C21.754 37.6906 22.3641 36.6263 21.9904 35.6998L18.8347 27.874L21.7393 21.5618L25.1559 32.1447L21.0934 39.5404C20.6129 40.4153 21.0915 41.545 22.0496 41.812L36.8755 45.9422C37.8133 46.2035 38.7896 45.5203 38.8651 44.5495L39.5373 35.9022C40.7345 34.2293 41.6213 32.3767 42.1739 30.3929L42.8565 27.9426C43.0888 27.1091 41.7909 26.7463 41.5583 27.581L40.8756 30.0312C40.3494 31.9204 39.4951 33.6805 38.3364 35.2627C38.2624 35.3639 38.218 35.4837 38.2083 35.6086L37.7937 40.9423L23.9755 37.0928L26.477 32.5388C26.5663 32.3762 26.5846 32.1839 26.5275 32.0074L22.5632 19.728C22.1117 18.312 24.3233 17.5913 24.7789 19.0204L26.1431 23.3229C26.5667 24.6586 28.5311 24.6233 28.9067 23.2737L32.7377 9.5088C33.1342 8.08628 35.3882 8.66147 34.9784 10.133L31.6847 21.956C31.4526 22.7895 32.7504 23.1523 32.983 22.3177L36.2766 10.4947V10.4946L37.016 7.84055C37.4123 6.41795 39.6666 6.99331 39.2565 8.46471L35.2235 22.9418C34.9822 23.808 36.2929 24.125 36.5217 23.3034L40.0618 10.5957C40.4643 9.15131 42.7049 9.77537 42.3025 11.2199L41.0704 15.6424C41.0703 15.6428 41.0701 15.6432 41.0701 15.6435L38.7623 23.9277C38.5302 24.761 39.8272 25.1267 40.0606 24.2893L42.3687 16.0039C42.7726 14.5608 45.0111 15.1857 44.6089 16.6294L42.6842 23.538C42.4521 24.3715 43.7499 24.7344 43.9825 23.8997L45.9071 16.991C46.2791 15.6573 45.4964 14.2701 44.1628 13.8986ZM37.6874 42.3115L37.5215 44.445C37.5107 44.5849 37.3726 44.6818 37.2374 44.6439L22.4114 40.5137C22.2728 40.4752 22.2056 40.3152 22.2748 40.1892L23.3092 38.3061L37.6874 42.3115ZM17.4762 28.1085L19.4193 32.9272L17.2371 33.2631C16.3837 33.3943 16.5855 34.7272 17.442 34.595L19.937 34.211L20.7406 36.2037C20.7944 36.337 20.7085 36.4879 20.5665 36.5097L5.35499 38.8508C5.21627 38.8723 5.09057 38.7597 5.09641 38.6195L5.185 36.4814L13.3092 35.2312C14.1643 35.0997 13.9604 33.7669 13.1042 33.8992L5.24187 35.1092L5.46334 29.764C5.46855 29.6388 5.43872 29.5146 5.37718 29.4054C4.41467 27.6969 3.77533 25.8478 3.47704 23.9095L1.36092 10.1589C1.13271 8.67593 3.43095 8.32176 3.6597 9.80466L4.96784 18.3046C5.09336 19.1212 6.44175 19.0216 6.2998 18.0997L4.99174 9.60017C4.99165 9.59981 4.99165 9.59954 4.99156 9.59918L4.29329 5.06155C4.06526 3.57947 6.36413 3.22575 6.59215 4.70774L8.59867 17.7459C8.72418 18.5627 10.0726 18.4625 9.93062 17.541L7.64478 2.6874C7.41648 1.20414 9.71535 0.850421 9.94365 2.33359L12.2295 17.1871C12.3611 18.0426 13.6933 17.8385 13.5614 16.9822L11.6947 4.85177C11.4664 3.3686 13.7655 3.0147 13.9936 4.49787L16.1635 18.6204C16.3765 20.0056 18.322 20.2749 18.9018 18.9973L20.7667 14.8882C21.3877 13.5253 23.5077 14.4826 22.884 15.8506C22.6796 16.295 22.3142 16.8199 22.2434 17.3099C21.5133 17.8156 21.0982 18.6819 21.1699 19.5759L17.4891 27.5749C17.4114 27.7433 17.4068 27.9364 17.4762 28.1085Z" fill="black" stroke="black" stroke-width="0.2"/>
    </g>
    <defs>
        <clipPath>
            <rect width="46" height="46" fill="white"/>
        </clipPath>
    </defs>
</svg>