<svg width="56" height="42" viewBox="0 0 56 42" fill="none" xmlns="http://www.w3.org/2000/svg">
    <path d="M55.9475 18.0674C55.7886 17.6432 55.3156 17.4283 54.8914 17.5872L49.5841 19.5777C49.3726 19.6568 49.1735 19.758 48.986 19.8747V17.4223H49.0424C49.9781 17.4223 50.7394 16.6609 50.7394 15.7252V13.9718C50.7394 13.0357 49.9781 12.2748 49.0424 12.2748H48.5276C46.0333 9.69252 40.136 7.81734 32.9702 7.21834C33.6602 6.45143 34.0811 5.43757 34.0811 4.32716C34.0811 1.94098 32.1396 0 29.7535 0H26.2466C23.8605 0 21.919 1.94141 21.919 4.32716C21.919 5.43757 22.3399 6.45143 23.0299 7.21834C15.8641 7.81734 9.96682 9.69252 7.47255 12.2748H6.95772C6.02205 12.2748 5.2607 13.0357 5.2607 13.9718V15.7252C5.2607 16.6609 6.02205 17.4223 6.95772 17.4223H7.01412V19.8747C6.82656 19.758 6.62746 19.6568 6.41597 19.5777L1.10871 17.5872C0.684456 17.4283 0.211494 17.6432 0.0525578 18.0674C-0.106805 18.4917 0.108527 18.9642 0.532356 19.1236L5.83962 21.1137C6.54244 21.3773 7.01412 22.0583 7.01412 22.8086V35.8909C7.01412 39.2435 9.74209 41.9714 13.0951 41.9714H42.905C46.258 41.9714 48.986 39.2439 48.986 35.8909V22.8086C48.986 22.0583 49.4577 21.3773 50.1605 21.1137L55.4678 19.1236C55.8916 18.9646 56.1065 18.4917 55.9475 18.0674ZM26.2466 1.64063H29.7535C31.2347 1.64063 32.44 2.84589 32.44 4.32716C32.44 5.80842 31.2347 7.01411 29.7535 7.01411H28.8204V6.08058C28.8204 5.6277 28.4529 5.26026 28.0001 5.26026C27.5467 5.26026 27.1797 5.6277 27.1797 6.08058V7.01411H26.2466C24.7649 7.01411 23.5597 5.80885 23.5597 4.32716C23.5597 2.84589 24.7649 1.64063 26.2466 1.64063ZM6.90132 15.7252V13.9718C6.90132 13.9406 6.92653 13.915 6.95772 13.915H40.2744C40.7273 13.915 41.0947 13.548 41.0947 13.0951C41.0947 12.6418 40.7273 12.2748 40.2744 12.2748H10.1095C11.4438 11.4494 13.2921 10.7085 15.5236 10.1168C19.1317 9.16017 23.446 8.65474 28.0001 8.65474C32.5536 8.65474 36.8684 9.16017 40.4765 10.1168C42.708 10.7085 44.5559 11.4494 45.8902 12.2748H43.7813C43.3284 12.2748 42.961 12.6418 42.961 13.0951C42.961 13.548 43.3284 13.915 43.7813 13.915H49.0424C49.0736 13.915 49.0988 13.9406 49.0988 13.9718V15.7252C49.0988 15.7564 49.0736 15.7816 49.0424 15.7816H6.95772C6.92653 15.7816 6.90132 15.7564 6.90132 15.7252ZM42.905 40.3308H13.0951C11.6057 40.3308 10.2864 39.593 9.48019 38.4646H11.3417C11.7946 38.4646 12.162 38.0972 12.162 37.6443C12.162 37.191 11.7946 36.824 11.3417 36.824H8.75429C8.68978 36.5228 8.65475 36.2109 8.65475 35.8909V17.4223H47.3449V35.8909C47.3449 36.2109 47.3103 36.5228 47.2454 36.824H14.849C14.3957 36.824 14.0287 37.191 14.0287 37.6443C14.0287 38.0972 14.3957 38.4646 14.849 38.4646H46.5195C45.7137 39.593 44.3944 40.3308 42.905 40.3308Z" fill="black"/>
</svg>