<svg width="44" height="44" viewBox="0 0 44 44" fill="none" xmlns="http://www.w3.org/2000/svg">
    <g clip-path="url(#clip0)">
        <path d="M38.833 18.7068L36.7742 6.3775C36.7155 6.02536 36.3824 5.78702 36.0306 5.84644C35.6785 5.90518 35.4408 6.23853 35.4996 6.59033L37.558 18.9193C37.5819 19.0623 37.594 19.2084 37.594 19.3531V40.5226C37.594 41.7274 36.6137 42.7076 35.4089 42.7076H8.71964C7.51483 42.7076 6.53461 41.7274 6.53461 40.5226V19.3534C6.53461 19.2084 6.54669 19.0623 6.57053 18.9197L9.41217 1.9017C9.47092 1.54855 9.77338 1.29242 10.1316 1.29242H33.9973C34.3552 1.29242 34.6577 1.54855 34.7167 1.9017L35.0769 4.06021C35.1357 4.41202 35.4687 4.65002 35.8208 4.59094C36.173 4.5322 36.4106 4.19919 36.3519 3.84738L35.9914 1.68887C35.8279 0.710327 34.9893 0 33.9973 0H10.1316C9.13925 0 8.30069 0.710327 8.13754 1.68854L5.2959 18.7068C5.26031 18.9197 5.24219 19.1372 5.24219 19.3534V40.5226C5.24219 42.44 6.80215 44 8.71964 44H35.4089C37.3264 44 38.8864 42.44 38.8864 40.5226V19.3534C38.8864 19.1372 38.8686 18.9197 38.833 18.7068Z" fill="black" stroke="black" stroke-width="0.5"/>
        <path d="M28.1276 3.73438H16.0003C14.247 3.73438 12.8203 5.16107 12.8203 6.9144C12.8203 8.66772 14.247 10.0941 16.0003 10.0941H28.1276C29.8809 10.0941 31.3073 8.66772 31.3073 6.9144C31.3073 5.16107 29.8809 3.73438 28.1276 3.73438ZM28.1276 8.80167H16.0003C14.9594 8.80167 14.1127 7.95505 14.1127 6.9144C14.1127 5.87375 14.9594 5.02679 16.0003 5.02679H28.1276C29.1682 5.02679 30.0149 5.87375 30.0149 6.9144C30.0149 7.95505 29.1682 8.80167 28.1276 8.80167Z" fill="black" stroke="black" stroke-width="0.5"/>
        <rect x="12.85" y="20.85" width="18.3" height="13.3" stroke="black" stroke-width="1.7"/>
    </g>
    <defs>
        <clipPath>
            <rect width="44" height="44" fill="white"/>
        </clipPath>
    </defs>
</svg>