<svg width="48" height="48" viewBox="0 0 48 48" fill="none" xmlns="http://www.w3.org/2000/svg">
    <rect opacity="0.08" width="48" height="48" rx="24" fill="#FC5239"/>
    <g clip-path="url(#clip0)">
        <path d="M31.5 13.5H27.4332C27.6349 13.96 27.75 14.4664 27.75 15V15.6935C27.75 15.375 27.7463 15.7057 27.7462 15.7124C27.7253 13.6624 26.0547 12 24 12C21.9453 12 20.2747 13.6624 20.2539 15.7124C20.2538 15.7057 20.25 15.7002 20.25 15.6935V15.2698C20.25 14.6471 20.4031 14.0467 20.6556 13.5H16.5C15.6716 13.5 15 14.1716 15 15V34.5C15 35.3284 15.6716 36 16.5 36H31.5C32.3284 36 33 35.3284 33 34.5V15C33 14.1716 32.3284 13.5 31.5 13.5ZM24 14.25C24.4142 14.25 24.75 14.5857 24.75 15C24.75 15.4142 24.4142 15.75 24 15.75C23.5858 15.75 23.25 15.4142 23.25 15C23.25 14.5857 23.5858 14.25 24 14.25ZM24.0462 31.5H19.5462V28.5H24.0462V31.5ZM28.5462 27H19.5462V24H28.5462V27ZM28.5462 22.5H19.5462V19.5H28.5462V22.5Z" fill="#FC5239"/>
        <rect x="18.75" y="13.5" width="3" height="2.25" fill="#FC5239"/>
        <rect x="26.25" y="13.5" width="3" height="2.25" fill="#FC5239"/>
    </g>
    <defs>
        <clipPath>
            <rect x="12" y="12" width="24" height="24" fill="white"/>
        </clipPath>
    </defs>
</svg>