<svg width="221" height="195" viewBox="0 0 221 195" fill="none" xmlns="http://www.w3.org/2000/svg">
<path opacity="0.15" d="M156.374 171.97H155.248L155.455 171.061C153.788 168.79 148.991 161.886 148.33 155.83C147.956 152.408 145.084 151.045 141.464 149.319C138.016 147.684 133.736 145.655 130.604 141.113C124.485 132.241 115.407 125.276 112.476 124.428C111.097 124.035 109.46 124.792 107.851 125.549C106.357 126.245 104.949 126.942 103.714 126.639C103.369 126.548 103.053 126.487 102.737 126.427C100.841 126.003 99.2034 125.639 97.1636 124.247C96.6752 123.913 96.7614 123.278 96.9912 122.611C95.5835 123.399 94.2045 123.974 92.9979 124.186C87.7692 125.094 78.8633 124.731 72.7153 122.218C67.5728 120.128 62.2579 119.644 57.7762 120.855C56.3972 121.218 54.1851 121.309 51.9155 121.158C51.9155 121.673 51.6856 122.187 51.226 122.672C50.0768 123.853 47.4912 124.549 45.3078 123.611C42.3774 122.339 39.1598 118.554 37.0051 115.586C36.2582 114.557 35.7123 113.557 35.3101 112.619C34.3621 112.043 33.6726 111.347 33.414 110.65C32.2648 107.683 33.7588 103.655 34.8505 100.718C34.9366 100.446 35.0516 100.203 35.1377 99.9611C36.3444 96.5998 39.0162 93.9654 42.1189 93.0569C45.2503 92.1182 50.6227 84.9113 53.1221 80.2783C55.6215 75.7058 64.0391 67.5299 65.2745 66.3489C65.3032 65.5616 65.4468 62.5032 65.9352 59.8385C66.3949 57.3554 68.8943 56.2956 70.7042 55.5083C71.5086 55.1449 72.2843 54.8421 72.6003 54.4787C73.7208 53.2978 81.0467 44.0923 82.5118 41.5789C83.661 39.5804 83.2875 36.4614 83.1439 35.6136C80.0986 33.827 75.2147 27.044 71.7672 22.0476C70.0435 19.5342 69.2678 15.1435 69.4402 9.02668C69.4402 8.84499 69.4402 8.72386 69.4402 8.6633C69.4402 8.29993 69.5838 7.17952 69.7849 6.24081C70.1584 4.36337 70.4169 4 70.8191 4C71.3937 4 71.5086 4.66619 71.5948 6.14996C71.7959 9.90483 74.1517 12.9935 76.6224 16.2639C76.7948 16.5061 76.9671 16.7181 77.1682 16.9603C77.1682 16.9301 77.1682 16.8695 77.1682 16.8392C77.1108 16.1125 77.2544 13.7203 77.5417 11.4492C78.0588 7.20981 78.6047 6.78587 79.0644 6.72531C79.7826 6.63446 80.1848 7.57318 80.6445 10.3288C81.7649 17.0512 88.8035 22.5624 93.0266 25.863C93.2277 26.0144 93.4001 26.1658 93.6012 26.3172C93.8023 26.1053 93.9747 25.9236 94.2045 25.7419C95.0664 25.0151 96.0432 24.7426 97.1062 24.9243C100.927 25.5905 102.794 30.708 104.432 35.2502C105.323 37.703 106.185 40.0346 107.161 41.0642C108.598 42.5782 112.677 43.7592 116.987 44.9704C121.009 46.1211 125.174 47.3021 128.306 48.9978C130.489 50.1788 132.5 51.6929 134.454 53.1463C138.476 56.1442 142.268 58.9906 147.267 59.1723C151.519 59.3237 156.431 61.7462 160.741 63.8659C164.073 65.5011 167.205 67.0454 168.986 66.9243C172.319 66.7123 182.431 66.0461 188.78 67.4996C194.698 68.8623 202.254 69.1348 202.34 69.1348H216V70.0433H202.254C202.168 70.0433 194.526 69.7404 188.522 68.3778C182.316 66.9546 172.29 67.6208 168.986 67.8327C166.975 67.9539 163.901 66.4398 160.339 64.6835C156.087 62.5941 151.289 60.2322 147.209 60.0807C141.981 59.8991 137.901 56.8407 133.937 53.9034C132.012 52.4499 130.001 50.9661 127.875 49.8154C124.83 48.15 120.721 46.9993 116.728 45.8486C112.131 44.5465 108.138 43.4261 106.529 41.7001C105.409 40.5191 104.576 38.2177 103.599 35.553C102.019 31.2531 100.266 26.3778 96.9338 25.8025C96.1294 25.651 95.3824 25.863 94.6929 26.4384C94.5493 26.5595 94.4056 26.7109 94.262 26.8623C97.7669 29.8298 98.9161 33.7058 100.525 39.005C100.755 39.7318 100.956 40.4585 101.214 41.2458C102.421 45.1824 106.242 47.2415 109.948 49.2401C112.447 50.5724 114.774 51.8443 116.326 53.6611C117.82 55.4174 118.366 58.0822 117.82 61.2314C117.188 65.0166 115.033 68.8623 112.965 70.013C110.408 71.4059 102.852 72.92 98.715 71.0425C97.3073 70.4066 96.4167 69.4376 96.0432 68.1658C95.325 65.5616 93.946 63.2905 92.4521 61.7159C92.6532 64.6835 92.5382 66.9849 92.2222 68.9229C93.2852 69.9827 95.8708 72.1932 99.347 73.4045C103.972 75.0094 111.7 72.5566 111.758 72.5263L112.304 72.3446V72.9502C112.304 73.0714 112.39 85.1536 111.126 94.6013C110.465 99.5674 107.707 105.805 103.915 110.832C99.5194 116.676 94.4056 120.189 89.493 120.704C80.7306 121.612 73.4909 118.857 68.6645 117.009C67.6015 116.616 66.6822 116.252 65.9352 116.01C63.7805 115.314 60.2756 115.132 57.2016 115.162C55.9088 116.252 54.3 116.646 52.2889 117.13L51.8006 117.252C49.9619 117.706 49.5884 116.919 49.5022 116.585C49.3299 115.828 50.0194 114.981 50.9674 114.738C51.8293 114.526 54.1851 114.314 56.8856 114.254C57.1729 113.981 57.4027 113.678 57.6613 113.345C59.5861 110.469 65.1883 107.774 67.0556 106.926C66.4523 106.502 64.8722 105.684 61.0226 104.503C58.2646 103.655 55.1906 104.17 52.6337 104.988C48.6978 112.679 43.5841 114.012 40.6537 114.042C39.1598 114.042 37.7234 113.769 36.5455 113.285C36.8615 113.86 37.235 114.466 37.6659 115.071C39.3896 117.433 42.6935 121.552 45.6238 122.793C47.405 123.55 49.6459 123.035 50.5939 122.036C50.8238 121.824 51.0249 121.491 51.0249 121.128C47.5774 120.825 44.2448 120.037 43.7277 119.129C43.5553 118.826 43.5841 118.493 43.8139 118.221C44.4747 117.433 46.0548 117.13 47.7498 117.464C49.6171 117.827 51.0536 118.857 51.6569 120.249C53.8403 120.431 56.0524 120.401 57.5176 120.007C62.1717 118.735 67.659 119.25 72.9738 121.4C78.9782 123.853 87.683 124.216 92.7968 123.308C94.1471 123.066 95.8708 122.309 97.7382 121.128C99.4332 118.463 104.806 111.922 106.328 112.891C106.443 112.982 106.73 113.224 106.644 113.739C106.386 115.223 102.45 119.19 98.3415 121.824C97.7095 122.884 97.5658 123.399 97.5946 123.55C99.4907 124.852 100.985 125.185 102.852 125.579C103.168 125.639 103.513 125.73 103.829 125.791C104.777 126.003 106.07 125.397 107.449 124.761C109.172 123.944 110.954 123.096 112.649 123.58C115.55 124.398 124.715 131.181 131.236 140.598C134.224 144.929 138.246 146.836 141.751 148.502C145.486 150.258 148.703 151.802 149.134 155.739C149.91 162.704 156.575 171.152 156.633 171.243L157.236 172H156.374V171.97ZM44.5609 118.675C45.078 119.159 47.721 119.765 50.6514 120.098C50.0481 119.22 48.9564 118.554 47.6349 118.281C46.342 118.039 45.078 118.221 44.5609 118.675ZM58.0922 114.193C61.0226 114.193 64.154 114.435 66.1938 115.071C66.9982 115.314 67.9175 115.677 68.9805 116.071C73.7208 117.888 80.8743 120.613 89.4355 119.704C99.7205 118.614 109.029 103.837 110.293 94.3893C111.384 86.1831 111.471 76.0086 111.471 73.465C109.575 74.0101 103.283 75.615 99.0885 74.1615C95.8134 73.0411 93.3427 71.0728 92.0498 69.8918C91.9349 70.5278 91.7913 71.1031 91.6764 71.6784C91.3316 73.0714 89.6366 73.9798 88.6598 74.3735C86.3615 75.3122 83.1726 75.615 81.4776 74.434C79.9262 73.3439 78.9782 74.2826 78.892 74.4037L78.3174 75.0094L78.145 74.1918C78.145 74.1615 77.4268 70.3763 80.7306 68.4989C83.8908 66.682 91.1305 68.075 91.4465 68.1355H91.4753C91.7338 66.137 91.82 63.8053 91.5327 60.7469C90.441 59.8082 89.3206 59.2631 88.4013 59.1723C85.8444 58.9603 74.4677 64.1081 73.3186 67.6208C72.9164 68.8017 72.9163 69.7404 73.2611 70.4975C73.6633 71.3453 74.4677 71.6179 74.4677 71.6179L75.3296 71.8904L74.5539 72.4052C74.4103 72.496 61.0226 82.3374 54.3574 100.96C53.984 101.99 53.6105 102.929 53.2083 103.807C55.7077 103.11 58.6093 102.777 61.2811 103.595C65.6192 104.927 68.1186 106.108 68.2623 106.956L68.3197 107.319L67.975 107.471C67.8888 107.501 60.4767 110.65 58.322 113.83C58.2933 113.951 58.1784 114.072 58.0922 114.193ZM105.811 113.648C104.978 113.951 102.421 116.283 99.9216 119.523C99.8929 119.553 99.8641 119.614 99.8354 119.644C100.324 119.28 100.812 118.887 101.272 118.493C104.173 116.101 105.581 114.284 105.811 113.648ZM55.5066 115.162C53.4956 115.253 51.858 115.404 51.1685 115.586C50.5939 115.738 50.3066 116.192 50.3354 116.343C50.3354 116.373 50.6227 116.585 51.5994 116.343L52.0878 116.222C53.4668 115.889 54.5873 115.616 55.5066 115.162ZM35.9709 111.952C37.1488 112.619 38.8151 113.133 40.6537 113.103C43.268 113.073 47.7785 111.892 51.4271 105.351C48.8127 106.32 46.9454 107.501 46.9166 107.531L45.5951 108.379L46.3133 106.956C46.3995 106.774 48.5254 102.384 45.5376 99.8096C44.7332 99.1132 43.6703 98.992 42.4349 99.4765C41.4294 99.8702 40.4526 100.597 39.5907 101.445C40.5388 101.596 41.2283 102.202 41.5156 103.201C42.3774 106.048 38.6427 110.741 38.4703 110.923L38.1256 111.347L37.8095 110.923C37.7234 110.802 35.6836 108.046 36.1145 105.351C36.2294 104.655 36.6317 103.807 37.235 102.929C36.6604 103.292 36.2007 103.746 35.9709 104.291C35.5112 105.2 34.5057 108.198 35.9709 111.952ZM70.7042 5.87743C70.4744 6.87671 70.2733 8.23937 70.2733 8.63302C70.2733 8.69358 70.2733 8.84499 70.2733 9.02668C70.0435 16.4153 71.3075 19.8976 72.428 21.5025C74.4103 24.4095 80.4721 33.2213 83.6897 34.9171L83.8908 35.0079L83.9196 35.2199C83.9483 35.4016 84.724 39.429 83.2013 42.0332C81.7074 44.5768 74.3241 53.9034 73.1749 55.1146C72.7153 55.5991 71.9108 55.9322 70.9915 56.3259C69.2678 57.0526 67.1131 57.9913 66.7396 59.9899C66.1938 62.9575 66.0789 66.5003 66.0789 66.5609V66.7426L65.9352 66.8637C65.849 66.9546 56.3972 75.9784 53.8403 80.7022C51.2834 85.3958 45.8537 92.845 42.32 93.9048C39.4758 94.7527 37.0339 97.1752 35.9134 100.264C35.8272 100.506 35.7411 100.748 35.6261 101.021C34.5919 103.837 33.1842 107.683 34.1897 110.287C34.2759 110.529 34.477 110.802 34.7643 111.074C33.7875 107.562 34.7355 104.806 35.1665 103.837C35.6836 102.686 36.9764 101.748 38.3267 101.475C39.4184 100.264 40.7973 99.1435 42.1476 98.5984C43.6702 97.9928 45.0492 98.1442 46.1122 99.0526C48.5829 101.203 48.0945 104.382 47.5487 106.108C48.5542 105.563 50.163 104.776 52.0591 104.14C52.5762 103.11 53.0646 101.929 53.5243 100.627C59.4999 83.9726 70.7904 74.2221 73.4622 72.1024C73.1175 71.8601 72.7152 71.4665 72.428 70.8911C71.9683 69.9221 71.9683 68.7109 72.428 67.3179C73.7495 63.3814 85.4422 58.0519 88.4013 58.2639C89.3206 58.3244 90.3548 58.7786 91.3604 59.5054C90.9007 53.9034 90.6421 45.3338 91.188 42.2451C91.3891 41.0642 91.2454 39.2776 90.7283 37.3093C90.6421 38.036 90.5847 38.5205 90.5847 38.5205L90.4985 39.3987L89.8664 38.8234C89.4068 38.3994 79.0931 28.8608 77.3406 18.6561C76.881 18.0202 76.3926 17.3843 75.9042 16.7484C73.3473 13.3569 70.9053 10.1774 70.6755 6.11968C70.733 6.05912 70.733 5.96828 70.7042 5.87743ZM38.7576 102.293C37.7808 103.443 37.0913 104.655 36.9477 105.442C36.6891 107.168 37.6372 108.985 38.1543 109.833C39.2747 108.319 41.1996 105.2 40.6824 103.413C40.4813 102.717 39.9929 102.323 39.246 102.262C39.1023 102.293 38.93 102.293 38.7576 102.293ZM80.0699 73.0411C80.6157 73.0411 81.2765 73.2228 81.966 73.7073C83.345 74.6763 86.3041 74.3735 88.3725 73.5559C89.7515 72.9805 90.6996 72.2235 90.872 71.4967C91.0443 70.77 91.2167 70.013 91.3316 69.1954C91.2742 69.1348 91.2167 69.0742 91.1593 69.0137C90.1537 68.832 83.8046 67.7722 81.1616 69.3165C79.2367 70.4369 78.9494 72.3143 78.9494 73.3136C79.2367 73.1319 79.6389 73.0411 80.0699 73.0411ZM92.3371 60.2927C94.2333 61.9885 95.9857 64.6532 96.8763 67.863C97.1636 68.8623 97.8818 69.6496 99.0597 70.1644C102.823 71.8601 110.092 70.5278 112.562 69.1651C114.401 68.1658 116.383 64.5018 116.987 61.0497C117.475 58.2033 117.015 55.7808 115.694 54.2668C114.257 52.6013 111.959 51.3598 109.546 50.0577C105.696 47.9683 101.732 45.8183 100.381 41.5487C100.151 40.7613 99.9216 40.0043 99.6918 39.3079C98.0829 33.9784 96.9912 30.3749 93.6874 27.589C92.2797 29.6179 91.4753 32.9791 91.0443 35.4621C92.0211 38.248 92.3371 40.8825 92.0498 42.5177C91.504 45.5761 91.8488 54.9329 92.3371 60.2927ZM78.6621 20.4124C80.8456 28.2249 87.7405 35.4924 89.8664 37.5818C89.9239 37.0368 90.0388 36.2797 90.1825 35.4319C89.2344 32.8277 87.7118 30.0721 85.6146 27.9524L84.5229 26.8623C81.9372 24.3187 80.6444 23.0166 78.6621 20.4124ZM78.2025 18.323C80.8743 21.987 82.1096 23.2286 85.1262 26.2264L86.2179 27.3165C88.0565 29.1637 89.493 31.5256 90.4698 33.8572C90.9581 31.5256 91.7626 28.8306 93.0266 26.9834C92.8543 26.8623 92.6819 26.7109 92.5095 26.5595C88.2002 23.168 80.9605 17.5054 79.7826 10.4499C79.4953 8.75415 79.2655 8.05768 79.1218 7.75487C78.5185 9.02668 77.9152 15.1435 78.0301 16.7484C78.0588 17.2632 78.1163 17.8082 78.2025 18.323Z" fill="black" stroke="black" stroke-width="0.9"/>
</svg>
