<svg width="160" height="47" viewBox="0 0 160 47" fill="none" xmlns="http://www.w3.org/2000/svg">
<path d="M9.16771 0.849014C7.70448 0.849014 5.80754 2.40405 4.6885 3.43919C2.22828 5.62776 -3.05176e-05 9.6521 -3.05176e-05 12.8822C-3.05176e-05 17.4721 3.89491 19.2046 4.88005 19.2046C5.20486 19.2046 5.48178 19.0367 5.48178 18.595C5.48178 18.2488 5.26268 17.9606 5.0447 17.6647C4.14268 16.2827 3.85295 14.9637 3.85295 13.1848C3.85295 9.47586 5.55977 6.07623 6.97559 4.52055C7.23665 4.23901 7.82652 3.63084 8.00302 3.63084C8.17824 3.63084 8.22164 3.77385 8.22164 4.2159L8.05715 28.4918C8.05715 32.2868 6.96454 33.7943 6.96454 34.6879C6.96454 35.0805 7.13415 35.1824 7.45799 35.1824C8.99137 35.1824 10.5195 33.3094 10.9524 32.6262C12.2948 30.3024 12.6241 28.4883 12.6241 23.2556V2.85653C12.6241 2.30437 12.4696 2.06569 11.9462 1.72525C11.1808 1.23809 10.3037 0.849014 9.16771 0.849014ZM53.0105 0.91675C52.2893 0.91675 51.981 1.29459 51.9468 2.46376L51.7868 7.30478L47.5623 7.15807C47.306 7.15149 47.1902 7.23271 47.0781 7.45839C46.7194 8.13254 46.5305 8.66078 46.5305 9.54038C46.5305 10.2566 46.8545 10.333 47.1435 10.333L51.5389 10.4595L51.5255 19.7083C51.5255 21.6699 50.2903 24.2147 48.0987 26.3312C48.0987 26.3312 48.2872 25.6922 48.2764 25.0217C48.2764 23.124 47.0578 21.4043 45.4331 20.1873L41.4677 17.1976C42.2989 16.2339 43.7072 14.3225 43.7072 12.7086C43.7072 11.4572 42.9221 10.9315 41.4586 10.9315C39.393 10.9315 36.9975 12.8275 36.9975 15.6395C36.9975 16.6645 37.4525 17.5871 38.1442 18.2927C37.1892 20.1088 35.8379 22.4981 34.8345 24.1997C34.0766 25.5026 32.7946 27.4987 32.036 27.4987C31.4768 27.4987 31.2183 26.6169 31.2183 23.2288C31.2183 20.4139 31.4178 17.3534 31.5179 14.4158C31.5179 13.7424 31.4077 13.1212 30.5355 12.5123C29.7331 11.997 28.7422 11.2774 27.7215 11.2774C25.4523 11.2774 23.9065 13.37 22.846 15.4162C21.7486 17.5369 21.1552 19.324 20.3181 21.9169L20.4105 12.9933C20.439 12.357 20.2787 12.11 19.7706 11.8935C19.1116 11.6134 18.1415 11.2904 17.2809 11.2904C16.5618 11.2904 16.4744 11.6012 16.4744 12.3585L16.3776 23.066L16.3666 27.1958C16.3666 30.9192 16.8319 31.5401 19.0365 31.5401C20.257 31.5401 20.648 31.3964 20.6722 30.3796C20.7057 29.707 21.0266 28.0777 21.4608 26.4437C22.7307 21.6206 24.2354 17.8059 26.8299 14.8984C27.1004 14.6162 27.3095 14.7172 27.2669 15.1173C27.2669 15.1173 26.8568 21.6445 26.8568 24.3143C26.8568 29.0626 27.5858 31.5402 29.9432 31.5402C32.2569 31.5402 34.5293 28.561 35.7697 26.5498L39.7489 19.8796C42.3273 22.0815 44.1265 23.7887 44.1265 25.8655C44.1265 27.1563 43.3139 28.4192 42.076 28.4192C40.529 28.4192 39.5407 26.7843 38.4958 26.7843C37.6285 26.7843 36.5154 28.4623 36.5154 29.4151C36.5154 30.3146 38.474 31.5871 41.9882 31.5871C47.176 31.5871 49.9589 28.0191 51.6291 24.0679C51.9488 28.7574 53.8132 31.4967 56.7211 31.4967C58.6284 31.4967 60.8329 29.0817 61.8356 26.1316C61.8356 26.1316 61.9346 26.8974 62.6962 28.4664C63.7444 30.5154 65.338 31.4561 67.3174 31.4561C69.7794 31.4561 71.8852 29.9603 73.1708 27.4504C73.3657 29.3523 74.9592 31.4468 77.5216 31.4468C79.1301 31.4468 80.5965 30.2117 81.559 28.1772C81.559 28.1772 82.8059 31.5373 86.4122 31.5373C88.4378 31.5373 90.8363 29.6568 91.4095 28.2904L91.4726 30.2775L86.1218 35.2227C84.5681 36.7342 82.9154 38.9059 82.9154 41.3104C82.9154 44.3685 85.7964 46.1269 88.3317 46.1269C90.9672 46.1269 92.7158 44.4535 93.6737 43.0515C94.8792 41.2372 95.3884 37.8178 95.3884 34.4753L95.2689 29.4492C98.8753 25.4764 101.698 19.9852 102.954 16.0998L105.692 16.0276C106.222 15.9918 106.196 16.2011 106.122 16.5109C105.641 18.5484 105.221 20.856 105.221 23.154C105.221 26.9506 106.094 28.6027 107.348 29.9529C108.438 31.0842 109.523 31.4657 110.664 31.4657C112.896 31.4657 114.298 29.6183 114.742 28.4536C115.791 30.5025 117.335 31.4568 119.314 31.4568C121.776 31.4568 123.882 29.961 125.167 27.451C125.362 29.3529 126.956 31.4475 129.518 31.4475C131.432 31.4475 132.543 30.3404 133.416 28.2546C133.434 28.9255 133.459 29.6407 133.479 30.3114C133.502 30.6584 133.779 30.878 134.027 30.9685C134.841 31.2772 135.555 31.4316 136.196 31.4316C137.87 31.4316 138.233 31.0871 138.233 29.9908C138.233 28.1827 138.286 25.3257 138.799 23.0318C139.343 20.7481 140.164 18.1627 141.298 16.3639C141.4 16.178 141.65 16.2268 141.66 16.452C141.823 20.3009 142.08 26.8164 143.089 28.503C143.587 29.3075 144.357 29.8939 145.509 29.8939C146.049 29.8939 146.711 29.663 146.881 29.5191C147.052 29.3849 147.139 29.2358 147.128 28.9592C147.128 24.0389 148.659 19.2754 150.193 16.0727C150.235 15.9777 150.354 15.9703 150.35 16.0953L150.265 19.6406C150.265 25.4633 150.684 29.1419 153.586 30.9104C154.156 31.2304 154.8 31.3975 155.453 31.3956C156.938 31.3956 158.285 30.5645 158.95 29.2279C159.492 28.1892 160 26.1901 160 25.0577C160 24.6193 160.005 23.9058 159.288 23.9058C158.895 23.9058 158.659 24.1964 158.565 24.6352C158.336 25.5864 158.149 26.4021 157.794 27.3425C157.455 28.2403 156.95 28.7631 156.35 28.7631C155.646 28.7631 155.288 28.2075 155.084 27.8642C154.185 26.4902 154.113 23.3339 154.113 20.6995L154.329 13.9187C154.329 13.3577 154.095 12.6862 153.232 12.1912C152.652 11.8567 151.186 11.227 150.287 11.227C149.454 11.227 149.051 11.6999 148.75 12.3941C148.186 13.641 146.302 18.5316 145.797 22.5078C145.779 22.6126 145.648 22.6347 145.639 22.501C145.376 19.6892 145.242 16.3013 145.245 14.0156C145.245 13.3246 145.076 12.3368 143.613 11.6967C142.903 11.4012 142.315 11.2203 141.597 11.2203C140.706 11.2203 140.514 11.6572 140.195 12.2362C139.186 14.1048 138.488 16.5417 137.442 19.6155L137.458 12.5819C137.458 12.253 137.257 11.8219 136.681 11.7058C135.252 11.3768 134.59 11.2274 134.027 11.2274C133.616 11.2274 133.391 11.555 133.391 11.9092L133.314 23.9017C133.038 25.3697 131.918 28.8738 130.329 28.8738C129.025 28.8738 128.416 27.5496 128.416 22.0142L128.653 13.018C128.653 12.4498 128.281 12.2111 127.738 11.9705C126.963 11.6617 126.345 11.5391 125.557 11.5391C124.568 11.5391 124.228 12.0137 124.428 13.1538C123.341 11.679 122.253 10.864 120.332 10.864C116.476 10.864 113.569 15.5132 113.569 22.2694C113.531 24.1639 113.988 26.0469 113.988 26.0469C113.639 27.6193 112.818 28.9009 111.685 28.9009C110.255 28.9009 109.344 26.8751 109.344 23.3643C109.344 19.843 110.682 15.8714 110.682 14.795C110.682 13.5435 109.864 12.7517 108.416 12.7517C107.69 12.7517 104.999 13.3636 103.619 13.5644C103.619 13.5644 103.775 12.9058 103.763 12.388C103.763 11.154 103.185 10.3807 101.751 10.3807C99.9986 10.3807 98.7117 11.6349 98.7117 13.7747C98.7117 14.7347 99.2635 15.623 99.9938 16.1002C99.0458 20.0629 97.5044 23.0099 95.233 26.3021L95.4244 12.9707C95.4244 12.5373 95.3093 12.2681 94.4622 11.9386C94.0144 11.7447 93.2845 11.5208 92.3646 11.5208C91.0312 11.5208 91.1195 12.475 91.1908 13.1894C90.5807 12.1054 89.2451 10.8185 87.1847 10.8185C81.5698 10.8185 79.846 19.3995 80.6913 25.4934C80.6913 26.2365 79.9674 28.8738 78.3323 28.8738C77.0281 28.8738 76.4195 27.5496 76.4195 22.0142L76.6585 13.018C76.6585 12.4497 76.2837 12.211 75.7412 11.9705C74.9656 11.6617 74.3507 11.5391 73.5624 11.5391C72.5728 11.5391 72.2332 12.0137 72.4334 13.1537C71.3458 11.6789 70.2562 10.8638 68.3351 10.8638C64.4784 10.8638 61.5329 15.1157 61.5329 21.8717C61.5329 24.4506 59.3173 28.386 57.7635 28.386C56.9004 28.386 55.9814 26.7981 55.9814 22.741C55.9858 19.9755 56.3621 10.5612 56.3621 10.5612L61.7853 10.4731C62.0442 10.4707 62.1941 10.1872 62.29 10.0126C62.539 9.50619 62.6595 9.16896 62.6595 8.56303C62.6595 8.01633 62.5503 7.81665 61.8507 7.77716L56.4454 7.45197L56.6754 2.40549C56.6916 2.08688 56.4997 1.87918 56.1527 1.72364C55.1063 1.31353 53.8231 0.916911 53.0105 0.91675ZM69.424 14.1397C70.8699 14.1397 72.3372 15.4613 72.3372 20.1503C72.3372 26.0543 70.191 28.8011 68.5407 28.8011C66.9936 28.8011 65.8191 26.6125 65.8191 22.3137C65.8191 17.9685 66.966 14.1397 69.424 14.1397ZM121.497 14.1397C122.943 14.1397 124.41 15.4613 124.41 20.1503C124.41 26.0543 122.264 28.8011 120.614 28.8011C119.067 28.8011 117.892 26.6125 117.892 22.3137C117.892 17.9685 119.039 14.1397 121.497 14.1397ZM88.4693 14.1668C90.3563 14.1668 91.1911 16.116 91.1911 19.8951C91.1911 25.5928 89.5011 28.8369 87.4486 28.8369C86.1384 28.8369 84.6317 26.6807 84.7112 22.4399C84.7112 19.7284 85.5933 14.1668 88.4693 14.1668ZM91.664 33.2269V35.4712C91.664 42.9182 89.684 44.1893 88.0929 44.1893C87.4901 44.1893 86.0134 43.733 86.0134 41.8906C86.0134 39.3152 88.7001 36.3854 89.535 35.4801L91.664 33.2269Z" fill="black"/>
</svg>
