<svg width="674" height="483" viewBox="0 0 674 483" fill="none" xmlns="http://www.w3.org/2000/svg">
  <path d="M649.37 23.86H23.86V458.77H649.37V23.86ZM646.37 26.86V455.74H26.93V26.93L646.37 26.86Z" fill="#ffffff"/>
  <path d="M0 0V482.63H673.23V0H0ZM658.46 468.73H14.77V14.73H658.46V468.73Z" fill="#ffffff"/>
  <path d="M225.37 164H255.13V183.7H225.37V224H262.81V243.7H203.69V105.82H262.81V125.52H225.37V164Z" fill="#ffffff"/>
  <path d="M337.11 218.33L353.66 105.82H373.59L352.28 243.75H320L298.71 105.82H320.58L337.11 218.33Z" fill="#ffffff"/>
  <path d="M433.47 164H463.22V183.7H433.47V224H470.9V243.7H411.79V105.82H470.9V125.52H433.47V164Z" fill="#ffffff"/>
  <path
    d="M145.94 304.71L143 310.2V328.64H133.54V268.58H143V294.75L155.36 268.58H164.8L151.64 295.34L164.77 328.64H155.08L145.94 304.71Z"
    fill="#ffffff"/>
  <path d="M201 268.58H210.44V328.64H201V268.58Z" fill="#ffffff"/>
  <path d="M246.54 268.58H275.71V277.17H265.83V328.64H256.39V277.17H246.54V268.58Z" fill="#ffffff"/>
  <path
    d="M339.1 306.28V314.28C339.1 323.89 334.29 329.38 325.03 329.38C315.77 329.38 311 323.87 311 314.26V283C311 273.39 315.8 267.89 325.07 267.89C334.34 267.89 339.14 273.39 339.14 283V288.83H330.22V282.39C330.22 278.11 328.33 276.5 325.33 276.5C322.33 276.5 320.43 278.13 320.43 282.39V314.83C320.43 319.12 322.32 320.67 325.33 320.67C328.34 320.67 330.22 319.12 330.22 314.83V306.28H339.1Z"
    fill="#ffffff"/>
  <path d="M386.22 328.64H376.8V268.58H386.22V294.32H396.93V268.58H406.58V328.64H397V302.91H386.22V328.64Z"
        fill="#ffffff"/>
  <path d="M454.81 293.89H467.81V302.48H454.81V320.06H471.12V328.64H445.37V268.58H471.11V277.17H454.81V293.89Z"
        fill="#ffffff"/>
  <path d="M517.28 285.14V328.64H508.79V268.58H520.63L530.33 304.53V268.58H538.74V328.64H529.05L517.28 285.14Z"
        fill="#ffffff"/>
  <path d="M157.08 105.78H135.38V243.78H157.08V105.78Z" fill="#ffffff"/>
  <path d="M539.66 105.78H517.96V243.78H539.66V105.78Z" fill="#ffffff"/>
  <path
    d="M213.11 353.64C215.074 353.521 217.01 354.15 218.53 355.4C219.217 356.104 219.745 356.946 220.079 357.87C220.414 358.795 220.547 359.78 220.47 360.76C220.538 362.354 220.146 363.933 219.34 365.31C218.947 365.906 218.434 366.414 217.836 366.803C217.237 367.192 216.564 367.453 215.86 367.57V367.65C217.004 367.744 218.083 368.224 218.92 369.01C219.664 369.976 220.084 371.152 220.12 372.37C220.12 372.89 220.21 373.45 220.23 374.06C220.25 374.67 220.28 375.34 220.31 376.06C220.36 377.53 220.44 378.65 220.54 379.43C220.578 379.751 220.687 380.06 220.86 380.334C221.033 380.607 221.266 380.838 221.54 381.01V381.25H215.54C215.257 380.852 215.072 380.393 215 379.91C214.919 379.39 214.866 378.866 214.84 378.34L214.69 373.04C214.695 372.126 214.411 371.234 213.88 370.49C213.565 370.156 213.178 369.898 212.748 369.736C212.318 369.575 211.857 369.515 211.4 369.56H208.4V381.25H202.83V353.64H213.11ZM210.71 365.72C211.831 365.778 212.934 365.422 213.81 364.72C214.207 364.296 214.509 363.792 214.695 363.242C214.882 362.692 214.948 362.108 214.89 361.53C214.89 358.97 213.6 357.69 211.02 357.69H208.39V365.69L210.71 365.72Z"
    fill="#ffffff"/>
  <path
    d="M257.43 372.92C257.425 373.559 257.468 374.198 257.56 374.83C257.632 375.361 257.805 375.874 258.07 376.34C258.308 376.757 258.653 377.102 259.07 377.34C259.575 377.584 260.129 377.71 260.69 377.71C261.251 377.71 261.805 377.584 262.31 377.34C262.726 377.101 263.071 376.756 263.31 376.34C263.575 375.874 263.748 375.361 263.82 374.83C263.912 374.198 263.955 373.559 263.95 372.92V353.64H269.52V372.92C269.568 374.404 269.32 375.883 268.79 377.27C268.357 378.33 267.67 379.267 266.79 380C265.967 380.668 264.997 381.13 263.96 381.35C262.88 381.589 261.776 381.707 260.67 381.7C259.566 381.705 258.464 381.601 257.38 381.39C256.349 381.202 255.379 380.77 254.55 380.13C253.657 379.426 252.967 378.498 252.55 377.44C252.013 375.996 251.765 374.46 251.82 372.92V353.64H257.39L257.43 372.92Z"
    fill="#ffffff"/>
  <path
    d="M304.61 373.46C304.604 374.051 304.657 374.64 304.77 375.22C304.849 375.705 305.049 376.162 305.35 376.55C305.649 376.931 306.042 377.227 306.49 377.41C307.064 377.631 307.675 377.737 308.29 377.72C309.132 377.723 309.948 377.425 310.59 376.88C310.942 376.557 311.216 376.157 311.389 375.711C311.563 375.266 311.631 374.786 311.59 374.31C311.601 373.762 311.512 373.217 311.33 372.7C311.154 372.233 310.87 371.815 310.5 371.48C310.049 371.064 309.532 370.726 308.97 370.48C308.209 370.13 307.427 369.826 306.63 369.57C305.522 369.213 304.447 368.758 303.42 368.21C302.576 367.767 301.812 367.186 301.16 366.49C300.552 365.837 300.095 365.059 299.82 364.21C299.522 363.238 299.377 362.226 299.39 361.21C299.39 358.47 300.153 356.43 301.68 355.09C303.45 353.669 305.684 352.956 307.95 353.09C309.103 353.076 310.253 353.214 311.37 353.5C312.355 353.741 313.279 354.188 314.08 354.81C314.851 355.429 315.462 356.225 315.86 357.13C316.313 358.201 316.531 359.357 316.5 360.52V361.29H311.16C311.218 360.244 310.975 359.202 310.46 358.29C310.202 357.923 309.851 357.631 309.444 357.443C309.036 357.256 308.587 357.179 308.14 357.22C307.61 357.204 307.083 357.296 306.59 357.49C306.202 357.644 305.859 357.891 305.59 358.21C305.345 358.5 305.171 358.842 305.08 359.21C304.991 359.604 304.948 360.006 304.95 360.41C304.924 361.163 305.111 361.909 305.49 362.56C306.086 363.316 306.894 363.876 307.81 364.17L312.11 366.03C313.028 366.409 313.897 366.896 314.7 367.48C315.322 367.928 315.866 368.475 316.31 369.1C316.711 369.679 316.993 370.331 317.14 371.02C317.298 371.783 317.375 372.561 317.37 373.34C317.37 376.26 316.527 378.383 314.84 379.71C312.776 381.154 310.285 381.859 307.77 381.71C304.63 381.71 302.37 381.03 301.02 379.66C300.311 378.863 299.77 377.932 299.426 376.922C299.083 375.912 298.945 374.844 299.02 373.78V372.66H304.59L304.61 373.46Z"
    fill="#ffffff"/>
  <path
    d="M351.79 373.46C351.784 374.051 351.837 374.64 351.95 375.22C352.029 375.705 352.229 376.162 352.53 376.55C352.829 376.931 353.222 377.227 353.67 377.41C354.244 377.63 354.855 377.736 355.47 377.72C356.312 377.723 357.128 377.425 357.77 376.88C358.124 376.558 358.399 376.159 358.573 375.713C358.746 375.267 358.814 374.787 358.77 374.31C358.779 373.763 358.694 373.219 358.52 372.7C358.337 372.234 358.05 371.817 357.68 371.48C357.231 371.066 356.718 370.729 356.16 370.48C355.395 370.132 354.61 369.828 353.81 369.57C352.702 369.211 351.628 368.756 350.6 368.21C349.756 367.767 348.992 367.186 348.34 366.49C347.736 365.834 347.279 365.057 347 364.21C346.705 363.238 346.563 362.226 346.58 361.21C346.58 358.47 347.34 356.43 348.86 355.09C350.63 353.669 352.864 352.956 355.13 353.09C356.286 353.077 357.439 353.215 358.56 353.5C359.544 353.745 360.467 354.191 361.27 354.81C362.038 355.432 362.648 356.227 363.05 357.13C363.498 358.203 363.716 359.358 363.69 360.52V361.29H358.34C358.396 360.245 358.157 359.205 357.65 358.29C357.389 357.924 357.036 357.633 356.627 357.445C356.219 357.257 355.768 357.18 355.32 357.22C354.794 357.203 354.269 357.295 353.78 357.49C353.392 357.642 353.048 357.89 352.78 358.21C352.538 358.5 352.367 358.842 352.28 359.21C352.188 359.603 352.141 360.006 352.14 360.41C352.114 361.163 352.301 361.909 352.68 362.56C353.278 363.314 354.085 363.874 355 364.17L359.3 366.03C360.218 366.409 361.087 366.896 361.89 367.48C362.512 367.928 363.056 368.475 363.5 369.1C363.901 369.679 364.183 370.331 364.33 371.02C364.493 371.782 364.57 372.56 364.56 373.34C364.56 376.26 363.717 378.383 362.03 379.71C359.969 381.153 357.481 381.857 354.97 381.71C351.823 381.71 349.57 381.027 348.21 379.66C347.501 378.863 346.96 377.932 346.616 376.922C346.273 375.912 346.135 374.844 346.21 373.78V372.66H351.78L351.79 373.46Z"
    fill="#ffffff"/>
  <path d="M394.76 353.64H400.33V381.28H394.76V353.64Z" fill="#ffffff"/>
  <path
    d="M443.83 353.64L451.15 381.28H445.34L444.07 375.43H436.71L435.44 381.28H429.63L437 353.64H443.83ZM443.1 370.86L440.43 358.44H440.35L437.68 370.86H443.1Z"
    fill="#ffffff"/>
</svg>
